<svg width="65" height="64" viewBox="0 0 65 64" fill="none" xmlns="http://www.w3.org/2000/svg">
<rect x="9.58398" y="3" width="45" height="58" rx="7" stroke="#3385FF" stroke-width="6"/>
<path d="M25.3882 29.344L27.4842 26.624V24.8H20.4442V26.864H24.8282L22.6202 29.744L23.4682 31.024H23.9482C25.1002 31.024 25.7402 31.648 25.7402 32.544C25.7402 33.456 25.1002 34.064 23.9482 34.064C22.8922 34.064 22.2682 33.6 21.9962 32.768L20.1082 33.856C20.7482 35.456 22.2682 36.224 23.9482 36.224C26.0602 36.224 27.9482 34.944 27.9482 32.544C27.9482 30.896 26.8442 29.776 25.3882 29.344ZM32.8609 28.88H31.7089L31.8529 26.864H36.1569V24.8H29.8049L29.3569 31.024H32.7489C33.8369 31.024 34.4769 31.648 34.4769 32.544C34.4769 33.456 33.8369 34.064 32.6849 34.064C31.5649 34.064 30.9409 33.584 30.6689 32.72L28.7809 33.824C29.4209 35.456 30.9409 36.224 32.6849 36.224C34.7969 36.224 36.6849 34.944 36.6849 32.544C36.6849 30.144 34.9089 28.88 32.8609 28.88ZM46.2025 32.048H45.0025V29.392H42.7785V32.048H39.8665L43.5785 24.8H41.2105L37.4825 32.048V34.096H42.7785V36H45.0025V34.096H46.2025V32.048Z" fill="#0066FF"/>
<path d="M25.8822 40.4H21.7622V41.456H23.2662V46H24.3702V41.456H25.8822V40.4ZM27.6025 44.944V43.688H29.7225V42.648H27.6025V41.456H29.9225V40.4H26.4985V46H29.9625V44.944H27.6025ZM32.6527 46.112C33.8447 46.112 34.6847 45.472 34.6847 44.424C34.6847 43.28 33.7407 42.984 32.8527 42.704C32.0047 42.448 31.7887 42.264 31.7887 41.92C31.7887 41.6 32.0607 41.36 32.5247 41.36C33.0927 41.36 33.3967 41.656 33.5967 42.08L34.5247 41.544C34.1487 40.76 33.4447 40.288 32.5247 40.288C31.5647 40.288 30.6847 40.896 30.6847 41.952C30.6847 43.016 31.5167 43.376 32.3727 43.624C33.2047 43.864 33.5807 44.024 33.5807 44.44C33.5807 44.752 33.3487 45.032 32.6847 45.032C31.9887 45.032 31.5967 44.696 31.3967 44.176L30.4527 44.728C30.7567 45.56 31.5087 46.112 32.6527 46.112ZM38.9056 40.4H34.7856V41.456H36.2896V46H37.3936V41.456H38.9056V40.4ZM41.2777 46.112C42.4697 46.112 43.3097 45.472 43.3097 44.424C43.3097 43.28 42.3657 42.984 41.4777 42.704C40.6297 42.448 40.4137 42.264 40.4137 41.92C40.4137 41.6 40.6857 41.36 41.1497 41.36C41.7177 41.36 42.0217 41.656 42.2217 42.08L43.1497 41.544C42.7737 40.76 42.0697 40.288 41.1497 40.288C40.1897 40.288 39.3097 40.896 39.3097 41.952C39.3097 43.016 40.1417 43.376 40.9977 43.624C41.8297 43.864 42.2057 44.024 42.2057 44.44C42.2057 44.752 41.9737 45.032 41.3097 45.032C40.6137 45.032 40.2217 44.696 40.0217 44.176L39.0777 44.728C39.3817 45.56 40.1337 46.112 41.2777 46.112Z" fill="#0066FF"/>
<g style="mix-blend-mode:multiply">
<path d="M22.584 2V14H42.584V2.03704" stroke="#0066FF" stroke-width="4" stroke-linecap="round"/>
</g>
</svg>
