<svg width="65" height="64" viewBox="0 0 65 64" fill="none" xmlns="http://www.w3.org/2000/svg">
<path d="M7.74334 17.5719C4.5624 23.0814 3.28833 29.4866 4.11872 35.7941C4.94911 42.1015 7.83756 47.9587 12.3361 52.4572C16.8346 56.9558 22.6918 59.8442 28.9992 60.6746C35.3067 61.505 41.7119 60.2309 47.2214 57.05C52.731 53.869 57.037 48.959 59.4716 43.0814C61.9061 37.2038 62.3333 30.6871 60.6867 24.542C59.0401 18.3969 55.4119 12.9668 50.3647 9.09397C45.3174 5.2211 39.1333 3.12188 32.7715 3.12188" stroke="#3385FF" stroke-width="6" stroke-linecap="round"/>
<g style="mix-blend-mode:multiply">
<path d="M32.75 3.09998V11.1" stroke="#0066FF" stroke-width="6" stroke-linecap="round"/>
</g>
<path d="M20.984 22L17.304 23.3L17.984 25.66L20.624 24.92V36H23.384V22H20.984ZM31.1184 36.28C34.6984 36.28 36.7184 33.32 36.7184 29C36.7184 24.68 34.6984 21.72 31.1184 21.72C27.5584 21.72 25.5184 24.68 25.5184 29C25.5184 33.32 27.5584 36.28 31.1184 36.28ZM31.1184 33.58C29.2384 33.58 28.2784 31.96 28.2784 29C28.2784 26.04 29.2384 24.4 31.1184 24.4C32.9984 24.4 33.9784 26.04 33.9784 29C33.9784 31.96 32.9984 33.58 31.1184 33.58Z" fill="#0066FF"/>
<path d="M22.0156 44L20.6706 42.2L21.9656 40.5H21.1706L19.9706 42.045V40.5H19.2806V44H19.9706V42.36L21.2206 44H22.0156ZM22.3567 40.5V44H23.0467V40.5H22.3567ZM24.3846 43.34V40.5H23.6946V44H25.7196V43.34H24.3846ZM27.5518 44.07C28.5618 44.07 29.3718 43.27 29.3718 42.25C29.3718 41.225 28.5618 40.43 27.5518 40.43C26.5418 40.43 25.7368 41.225 25.7368 42.25C25.7368 43.27 26.5418 44.07 27.5518 44.07ZM27.5518 43.395C26.9168 43.395 26.4218 42.92 26.4218 42.25C26.4218 41.575 26.9168 41.1 27.5518 41.1C28.1868 41.1 28.6818 41.575 28.6818 42.25C28.6818 42.92 28.1868 43.395 27.5518 43.395ZM33.2817 40.5H32.5717L31.5717 42.155L30.5667 40.5H29.8567V44H30.5467V41.735L31.5317 43.355H31.6117L32.5967 41.73V44H33.2817V40.5ZM34.6239 43.34V42.555H35.9489V41.905H34.6239V41.16H36.0739V40.5H33.9339V44H36.0989V43.34H34.6239ZM38.9003 40.5H36.3253V41.16H37.2653V44H37.9553V41.16H38.9003V40.5ZM39.9754 43.34V42.555H41.3004V41.905H39.9754V41.16H41.4254V40.5H39.2854V44H41.4504V43.34H39.9754ZM43.8568 44H44.6018L43.8268 42.68C44.2268 42.495 44.5018 42.1 44.5018 41.66C44.5018 41.02 43.9818 40.5 43.3368 40.5H41.9368V44H42.6268V42.785H43.1518L43.8568 44ZM42.6268 41.145H43.3368C43.5968 41.145 43.8118 41.37 43.8118 41.66C43.8118 41.95 43.5968 42.18 43.3368 42.18H42.6268V41.145ZM46.1494 44.07C46.8944 44.07 47.4194 43.67 47.4194 43.015C47.4194 42.3 46.8294 42.115 46.2744 41.94C45.7444 41.78 45.6094 41.665 45.6094 41.45C45.6094 41.25 45.7794 41.1 46.0694 41.1C46.4244 41.1 46.6144 41.285 46.7394 41.55L47.3194 41.215C47.0844 40.725 46.6444 40.43 46.0694 40.43C45.4694 40.43 44.9194 40.81 44.9194 41.47C44.9194 42.135 45.4394 42.36 45.9744 42.515C46.4944 42.665 46.7294 42.765 46.7294 43.025C46.7294 43.22 46.5844 43.395 46.1694 43.395C45.7344 43.395 45.4894 43.185 45.3644 42.86L44.7744 43.205C44.9644 43.725 45.4344 44.07 46.1494 44.07Z" fill="#0066FF"/>
<path d="M40.8649 36H42.4349L43.7449 31.38L45.0649 36H46.6349L48.5949 29H47.1449L45.8049 34.19L44.3349 29H43.1549L41.6949 34.19L40.3549 29H38.9049L40.8649 36Z" fill="#0066FF"/>
</svg>
