<svg width="65" height="64" viewBox="0 0 65 64" fill="none" xmlns="http://www.w3.org/2000/svg">
<mask id="path-2-inside-1_4464_193" fill="white">
<path d="M33.2427 0.11411C32.7119 -0.0379665 32.1479 -0.038038 31.6171 0.113904L5.50455 7.58851C4.26744 7.94263 3.41699 9.05501 3.41699 10.319V30.6405C3.41699 47.9805 14.7315 58.3743 31.5043 63.8542C32.0993 64.0486 32.7425 64.0486 33.3375 63.8541C50.1059 58.374 61.417 47.9835 61.417 30.6476V10.319C61.417 9.05528 60.5669 7.94308 59.3302 7.58872L33.2427 0.11411Z"/>
</mask>
<path d="M31.6171 0.113904L33.2682 5.88224L33.2682 5.88224L31.6171 0.113904ZM33.2427 0.11411L34.8953 -5.6538L33.2427 0.11411ZM5.50455 7.58851L7.15571 13.3568H7.15571L5.50455 7.58851ZM31.5043 63.8542L33.3677 58.1509L33.3677 58.1509L31.5043 63.8542ZM33.3375 63.8541L31.4737 58.151L31.4736 58.151L33.3375 63.8541ZM59.3302 7.58872L57.6775 13.3566L59.3302 7.58872ZM33.2682 5.88224C32.7194 6.03933 32.1388 6.03925 31.5901 5.88202L34.8953 -5.6538C33.285 -6.11519 31.5763 -6.1154 29.9659 -5.65443L33.2682 5.88224ZM7.15571 13.3568L33.2682 5.88224L29.9659 -5.65443L3.85338 1.82018L7.15571 13.3568ZM9.41699 10.319C9.41699 11.7999 8.42786 12.9927 7.15571 13.3568L3.85339 1.82018C0.107018 2.89256 -2.58301 6.31006 -2.58301 10.319H9.41699ZM9.41699 30.6405V10.319H-2.58301V30.6405H9.41699ZM33.3677 58.1509C25.6086 55.6159 19.6263 52.1032 15.6227 47.6724C11.7276 43.3614 9.41699 37.8751 9.41699 30.6405H-2.58301C-2.58301 40.7459 0.763686 49.1265 6.71898 55.7174C12.5659 62.1884 20.6272 66.6126 29.6409 69.5575L33.3677 58.1509ZM31.4736 58.151C32.0896 57.9497 32.7518 57.9497 33.3677 58.1509L29.6409 69.5575C31.4469 70.1476 33.3955 70.1475 35.2014 69.5573L31.4736 58.151ZM55.417 30.6476C55.417 37.8802 53.1072 43.3648 49.2134 47.6744C45.2112 52.104 39.2308 55.6159 31.4737 58.151L35.2014 69.5573C44.2127 66.6123 52.2719 62.1889 58.1174 55.7192C64.0712 49.1296 67.417 40.7509 67.417 30.6476H55.417ZM55.417 10.319V30.6476H67.417V10.319H55.417ZM57.6775 13.3566C56.4057 12.9922 55.417 11.7996 55.417 10.319H67.417C67.417 6.31094 64.7281 2.89392 60.9828 1.82081L57.6775 13.3566ZM31.5901 5.88202L57.6775 13.3566L60.9828 1.82081L34.8953 -5.6538L31.5901 5.88202Z" fill="#3385FF" mask="url(#path-2-inside-1_4464_193)"/>
<g style="mix-blend-mode:multiply">
<path d="M32.417 2V12" stroke="#0066FF" stroke-width="4" stroke-linecap="round"/>
</g>
<g style="mix-blend-mode:multiply">
<path d="M32.417 52V62" stroke="#0066FF" stroke-width="4" stroke-linecap="round"/>
</g>
<path d="M28.5278 25.68L31.1478 22.28V20H22.3478V22.58H27.8278L25.0678 26.18L26.1278 27.78H26.7278C28.1678 27.78 28.9678 28.56 28.9678 29.68C28.9678 30.82 28.1678 31.58 26.7278 31.58C25.4078 31.58 24.6278 31 24.2878 29.96L21.9278 31.32C22.7278 33.32 24.6278 34.28 26.7278 34.28C29.3678 34.28 31.7278 32.68 31.7278 29.68C31.7278 27.62 30.3478 26.22 28.5278 25.68Z" fill="#0066FF"/>
<path d="M21.6826 42L20.3376 40.2L21.6326 38.5H20.8376L19.6376 40.045V38.5H18.9476V42H19.6376V40.36L20.8876 42H21.6826ZM22.0237 38.5V42H22.7137V38.5H22.0237ZM24.0516 41.34V38.5H23.3616V42H25.3866V41.34H24.0516ZM27.2188 42.07C28.2288 42.07 29.0388 41.27 29.0388 40.25C29.0388 39.225 28.2288 38.43 27.2188 38.43C26.2088 38.43 25.4038 39.225 25.4038 40.25C25.4038 41.27 26.2088 42.07 27.2188 42.07ZM27.2188 41.395C26.5838 41.395 26.0888 40.92 26.0888 40.25C26.0888 39.575 26.5838 39.1 27.2188 39.1C27.8538 39.1 28.3488 39.575 28.3488 40.25C28.3488 40.92 27.8538 41.395 27.2188 41.395ZM32.9487 38.5H32.2387L31.2387 40.155L30.2337 38.5H29.5237V42H30.2137V39.735L31.1987 41.355H31.2787L32.2637 39.73V42H32.9487V38.5ZM34.2909 41.34V40.555H35.6159V39.905H34.2909V39.16H35.7409V38.5H33.6009V42H35.7659V41.34H34.2909ZM38.5672 38.5H35.9922V39.16H36.9322V42H37.6222V39.16H38.5672V38.5ZM39.6424 41.34V40.555H40.9674V39.905H39.6424V39.16H41.0924V38.5H38.9524V42H41.1174V41.34H39.6424ZM43.5238 42H44.2688L43.4938 40.68C43.8938 40.495 44.1688 40.1 44.1688 39.66C44.1688 39.02 43.6488 38.5 43.0038 38.5H41.6038V42H42.2938V40.785H42.8188L43.5238 42ZM42.2938 39.145H43.0038C43.2638 39.145 43.4788 39.37 43.4788 39.66C43.4788 39.95 43.2638 40.18 43.0038 40.18H42.2938V39.145ZM45.8164 42.07C46.5614 42.07 47.0864 41.67 47.0864 41.015C47.0864 40.3 46.4964 40.115 45.9414 39.94C45.4114 39.78 45.2764 39.665 45.2764 39.45C45.2764 39.25 45.4464 39.1 45.7364 39.1C46.0914 39.1 46.2814 39.285 46.4064 39.55L46.9864 39.215C46.7514 38.725 46.3114 38.43 45.7364 38.43C45.1364 38.43 44.5864 38.81 44.5864 39.47C44.5864 40.135 45.1064 40.36 45.6414 40.515C46.1614 40.665 46.3964 40.765 46.3964 41.025C46.3964 41.22 46.2514 41.395 45.8364 41.395C45.4014 41.395 45.1564 41.185 45.0314 40.86L44.4414 41.205C44.6314 41.725 45.1014 42.07 45.8164 42.07Z" fill="#0066FF"/>
<path d="M35.5319 34H37.1019L38.4119 29.38L39.7319 34H41.3019L43.2619 27H41.8119L40.4719 32.19L39.0019 27H37.8219L36.3619 32.19L35.0219 27H33.5719L35.5319 34Z" fill="#0066FF"/>
</svg>
