<svg width="65" height="64" viewBox="0 0 65 64" fill="none" xmlns="http://www.w3.org/2000/svg">
<circle cx="32.917" cy="32" r="29" stroke="#3385FF" stroke-width="6"/>
<path d="M33.0628 25.32H31.3348L31.5508 22.296H38.0068V19.2H28.4788L27.8068 28.536H32.8948C34.5268 28.536 35.4868 29.472 35.4868 30.816C35.4868 32.184 34.5268 33.096 32.7988 33.096C31.1188 33.096 30.1828 32.376 29.7748 31.08L26.9428 32.736C27.9028 35.184 30.1828 36.336 32.7988 36.336C35.9668 36.336 38.7988 34.416 38.7988 30.816C38.7988 27.216 36.1348 25.32 33.0628 25.32Z" fill="#0066FF"/>
<g style="mix-blend-mode:multiply">
<path d="M32.917 2V12" stroke="#0066FF" stroke-width="4" stroke-linecap="round"/>
</g>
<g style="mix-blend-mode:multiply">
<path d="M32.917 52V62" stroke="#0066FF" stroke-width="4" stroke-linecap="round"/>
</g>
<g style="mix-blend-mode:multiply">
<path d="M2.91699 32L12.917 32" stroke="#0066FF" stroke-width="4" stroke-linecap="round"/>
</g>
<g style="mix-blend-mode:multiply">
<path d="M52.917 32L62.917 32" stroke="#0066FF" stroke-width="4" stroke-linecap="round"/>
</g>
<path d="M26.3026 40.4H25.0546L23.8386 42.736L22.6226 40.4H21.3746L23.2866 43.816V46H24.3826V43.816L26.3026 40.4ZM27.9433 44.944V43.688H30.0633V42.648H27.9433V41.456H30.2633V40.4H26.8393V46H30.3033V44.944H27.9433ZM34.7675 46H35.9675L33.9995 40.4H32.6315L30.6715 46H31.8635L32.1995 44.992H34.4315L34.7675 46ZM32.5515 43.96L33.3195 41.672L34.0875 43.96H32.5515ZM39.5832 46H40.7752L39.5352 43.888C40.1752 43.592 40.6152 42.96 40.6152 42.256C40.6152 41.232 39.7832 40.4 38.7512 40.4H36.5112V46H37.6152V44.056H38.4552L39.5832 46ZM37.6152 41.432H38.7512C39.1672 41.432 39.5112 41.792 39.5112 42.256C39.5112 42.72 39.1672 43.088 38.7512 43.088H37.6152V41.432ZM43.2513 46.112C44.4433 46.112 45.2833 45.472 45.2833 44.424C45.2833 43.28 44.3393 42.984 43.4513 42.704C42.6033 42.448 42.3873 42.264 42.3873 41.92C42.3873 41.6 42.6593 41.36 43.1233 41.36C43.6913 41.36 43.9953 41.656 44.1953 42.08L45.1233 41.544C44.7473 40.76 44.0433 40.288 43.1233 40.288C42.1633 40.288 41.2833 40.896 41.2833 41.952C41.2833 43.016 42.1153 43.376 42.9713 43.624C43.8033 43.864 44.1793 44.024 44.1793 44.44C44.1793 44.752 43.9473 45.032 43.2833 45.032C42.5873 45.032 42.1953 44.696 41.9953 44.176L41.0513 44.728C41.3553 45.56 42.1073 46.112 43.2513 46.112Z" fill="#0066FF"/>
</svg>
