<svg width="64" height="64" viewBox="0 0 64 64" fill="none" xmlns="http://www.w3.org/2000/svg">
<path d="M44.0001 13.3334C39.8934 13.3334 35.8934 15.9734 34.5067 19.6267H29.5201C28.1067 15.9734 24.1067 13.3334 20.0001 13.3334C14.6667 13.3334 10.6667 17.3334 10.6667 22.6667C10.6667 30.3734 19.0401 37.9734 31.7334 49.4667L32.0001 49.7334L32.2667 49.4667C44.9601 37.9734 53.3334 30.3734 53.3334 22.6667C53.3334 17.3334 49.3334 13.3334 44.0001 13.3334Z" fill="white"/>
<path d="M43.9999 8C39.3599 8 34.9066 10.16 31.9999 13.5733C29.0933 10.16 24.6399 8 19.9999 8C11.7866 8 5.33325 14.4533 5.33325 22.6667C5.33325 32.7467 14.3999 40.96 28.1333 53.44L31.9999 56.9333L35.8666 53.4133C49.5999 40.96 58.6666 32.7467 58.6666 22.6667C58.6666 14.4533 52.2133 8 43.9999 8ZM32.2666 49.4667L31.9999 49.7333L31.7333 49.4667C19.0399 37.9733 10.6666 30.3733 10.6666 22.6667C10.6666 17.3333 14.6666 13.3333 19.9999 13.3333C24.1066 13.3333 28.1066 15.9733 29.5199 19.6267H34.5066C35.8933 15.9733 39.8933 13.3333 43.9999 13.3333C49.3333 13.3333 53.3333 17.3333 53.3333 22.6667C53.3333 30.3733 44.9599 37.9733 32.2666 49.4667Z" fill="#3385FF"/>
<g style="mix-blend-mode:multiply" filter="url(#filter0_b_4050_1627)">
<circle cx="48" cy="41" r="14" stroke="#0066FF" stroke-width="4"/>
</g>
<g filter="url(#filter1_b_4050_1627)">
<circle cx="48" cy="41" r="12" fill="white"/>
</g>
<path fill-rule="evenodd" clip-rule="evenodd" d="M47.8345 35.024C47.9443 34.992 48.061 34.992 48.1708 35.0241L53.5682 36.6007C53.8241 36.6755 54 36.9101 54 37.1767V40.41C54 44.0668 51.6598 47.3133 48.1905 48.4692C48.0674 48.5103 47.9343 48.5103 47.8112 48.4692C44.3409 47.3133 42 44.0662 42 40.4085V37.1767C42 36.91 42.176 36.6754 42.4319 36.6007L47.8345 35.024Z" fill="#0066FF"/>
<defs>
<filter id="filter0_b_4050_1627" x="22" y="15" width="52" height="52" filterUnits="userSpaceOnUse" color-interpolation-filters="sRGB">
<feFlood flood-opacity="0" result="BackgroundImageFix"/>
<feGaussianBlur in="BackgroundImage" stdDeviation="5"/>
<feComposite in2="SourceAlpha" operator="in" result="effect1_backgroundBlur_4050_1627"/>
<feBlend mode="normal" in="SourceGraphic" in2="effect1_backgroundBlur_4050_1627" result="shape"/>
</filter>
<filter id="filter1_b_4050_1627" x="26" y="19" width="44" height="44" filterUnits="userSpaceOnUse" color-interpolation-filters="sRGB">
<feFlood flood-opacity="0" result="BackgroundImageFix"/>
<feGaussianBlur in="BackgroundImage" stdDeviation="5"/>
<feComposite in2="SourceAlpha" operator="in" result="effect1_backgroundBlur_4050_1627"/>
<feBlend mode="normal" in="SourceGraphic" in2="effect1_backgroundBlur_4050_1627" result="shape"/>
</filter>
</defs>
</svg>
