<svg width="64" height="64" viewBox="0 0 64 64" fill="none" xmlns="http://www.w3.org/2000/svg">
<path d="M44 13.3334C39.8933 13.3334 35.8933 15.9734 34.5066 19.6267H29.52C28.1066 15.9734 24.1066 13.3334 20 13.3334C14.6666 13.3334 10.6666 17.3334 10.6666 22.6667C10.6666 30.3734 19.04 37.9734 31.7333 49.4667L32 49.7334L32.2666 49.4667C44.96 37.9734 53.3333 30.3734 53.3333 22.6667C53.3333 17.3334 49.3333 13.3334 44 13.3334Z" fill="white"/>
<path d="M44 8C39.36 8 34.9067 10.16 32 13.5733C29.0934 10.16 24.64 8 20 8C11.7867 8 5.33337 14.4533 5.33337 22.6667C5.33337 32.7467 14.4 40.96 28.1334 53.44L32 56.9333L35.8667 53.4133C49.6 40.96 58.6667 32.7467 58.6667 22.6667C58.6667 14.4533 52.2134 8 44 8ZM32.2667 49.4667L32 49.7333L31.7334 49.4667C19.04 37.9733 10.6667 30.3733 10.6667 22.6667C10.6667 17.3333 14.6667 13.3333 20 13.3333C24.1067 13.3333 28.1067 15.9733 29.52 19.6267H34.5067C35.8934 15.9733 39.8934 13.3333 44 13.3333C49.3334 13.3333 53.3334 17.3333 53.3334 22.6667C53.3334 30.3733 44.96 37.9733 32.2667 49.4667Z" fill="#3385FF"/>
<g style="mix-blend-mode:multiply" filter="url(#filter0_b_4050_1643)">
<circle cx="48" cy="41" r="14" stroke="#0066FF" stroke-width="4"/>
</g>
<g filter="url(#filter1_b_4050_1643)">
<circle cx="48" cy="41" r="12" fill="white"/>
</g>
<path d="M41.7 34C41.3134 34 41 34.3134 41 34.7V36.1118C41 36.4984 41.3134 36.8118 41.7 36.8118C42.0866 36.8118 42.4 36.4984 42.4 36.1118V35.4H43.0892C43.4758 35.4 43.7892 35.0866 43.7892 34.7C43.7892 34.3134 43.4758 34 43.0892 34H41.7Z" fill="#0066FF"/>
<path d="M45.2 39.25C45.2 38.6701 45.6701 38.2 46.25 38.2H49.4C49.4 37.8134 49.7134 37.5 50.1 37.5C50.4866 37.5 50.8 37.8134 50.8 38.2H53.95C54.5299 38.2 55 38.6701 55 39.25V46.95C55 47.5299 54.5299 48 53.95 48H46.25C45.6701 48 45.2 47.5299 45.2 46.95V43.8H45.1974C44.8108 43.8 44.4974 43.4866 44.4974 43.1C44.4974 42.7134 44.8108 42.4 45.1974 42.4H45.2V39.25Z" fill="#0066FF"/>
<path d="M41.7 41.0041C42.0866 41.0041 42.4 41.3175 42.4 41.7041V42.3999H43.099C43.4856 42.3999 43.799 42.7133 43.799 43.0999C43.799 43.4865 43.4856 43.7999 43.099 43.7999H41.7C41.3134 43.7999 41 43.4865 41 43.0999V41.7041C41 41.3175 41.3134 41.0041 41.7 41.0041Z" fill="#0066FF"/>
<path d="M48.7008 34C48.3142 34 48.0008 34.3134 48.0008 34.7C48.0008 35.0866 48.3142 35.4 48.7008 35.4H49.4V36.1053C49.4 36.4919 49.7134 36.8053 50.1 36.8053C50.4866 36.8053 50.8 36.4919 50.8 36.1053V34.7C50.8 34.3134 50.4866 34 50.1 34H48.7008Z" fill="#0066FF"/>
<path d="M44.5099 34.7C44.5099 34.3134 44.8233 34 45.2099 34H46.6029C46.9895 34 47.3029 34.3134 47.3029 34.7C47.3029 35.0866 46.9895 35.4 46.6029 35.4H45.2099C44.8233 35.4 44.5099 35.0866 44.5099 34.7Z" fill="#0066FF"/>
<path d="M42.4 38.2C42.4 37.8134 42.0866 37.5 41.7 37.5C41.3134 37.5 41 37.8134 41 38.2V39.6C41 39.9866 41.3134 40.3 41.7 40.3C42.0866 40.3 42.4 39.9862 42.4 39.5996V38.2Z" fill="#0066FF"/>
<defs>
<filter id="filter0_b_4050_1643" x="22" y="15" width="52" height="52" filterUnits="userSpaceOnUse" color-interpolation-filters="sRGB">
<feFlood flood-opacity="0" result="BackgroundImageFix"/>
<feGaussianBlur in="BackgroundImage" stdDeviation="5"/>
<feComposite in2="SourceAlpha" operator="in" result="effect1_backgroundBlur_4050_1643"/>
<feBlend mode="normal" in="SourceGraphic" in2="effect1_backgroundBlur_4050_1643" result="shape"/>
</filter>
<filter id="filter1_b_4050_1643" x="26" y="19" width="44" height="44" filterUnits="userSpaceOnUse" color-interpolation-filters="sRGB">
<feFlood flood-opacity="0" result="BackgroundImageFix"/>
<feGaussianBlur in="BackgroundImage" stdDeviation="5"/>
<feComposite in2="SourceAlpha" operator="in" result="effect1_backgroundBlur_4050_1643"/>
<feBlend mode="normal" in="SourceGraphic" in2="effect1_backgroundBlur_4050_1643" result="shape"/>
</filter>
</defs>
</svg>
