<svg width="65" height="64" viewBox="0 0 65 64" fill="none" xmlns="http://www.w3.org/2000/svg">
<path d="M10.084 56V14C10.084 11.2386 12.3226 9 15.084 9H36.893C38.1241 9 39.3119 9.45418 40.2289 10.2756L54.4199 22.9863C55.4789 23.9347 56.084 25.2891 56.084 26.7107V56C56.084 58.7614 53.8454 61 51.084 61H15.084C12.3226 61 10.084 58.7614 10.084 56Z" stroke="#3385FF" stroke-width="6" stroke-linecap="round"/>
<path d="M23.9925 31.048V29.2H18.1405V39H20.0725V35.22H23.8805V33.372H20.0725V31.048H23.9925ZM30.7762 39H32.8622L30.6922 35.304C31.8122 34.786 32.5822 33.68 32.5822 32.448C32.5822 30.656 31.1262 29.2 29.3202 29.2H25.4002V39H27.3322V35.598H28.8022L30.7762 39ZM27.3322 31.006H29.3202C30.0482 31.006 30.6502 31.636 30.6502 32.448C30.6502 33.26 30.0482 33.904 29.3202 33.904H27.3322V31.006ZM35.9318 37.152V34.954H39.6418V33.134H35.9318V31.048H39.9918V29.2H33.9998V39H40.0618V37.152H35.9318ZM43.3557 37.152V34.954H47.0657V33.134H43.3557V31.048H47.4157V29.2H41.4237V39H47.4857V37.152H43.3557Z" fill="#0066FF"/>
<path d="M23.5136 47.084C24.4376 47.084 25.1216 46.532 25.1216 45.626V42.8H24.2936V45.56C24.2936 45.968 24.0776 46.274 23.5136 46.274C22.9496 46.274 22.7336 45.968 22.7336 45.56V42.8H21.9116V45.626C21.9116 46.532 22.5956 47.084 23.5136 47.084ZM27.4335 42.8H25.8675V47H26.6955V45.62H27.4335C28.2435 45.62 28.8675 44.996 28.8675 44.21C28.8675 43.424 28.2435 42.8 27.4335 42.8ZM27.4335 44.846H26.6955V43.574H27.4335C27.7875 43.574 28.0455 43.844 28.0455 44.21C28.0455 44.57 27.7875 44.846 27.4335 44.846ZM32.6886 47L31.0746 44.84L32.6286 42.8H31.6746L30.2346 44.654V42.8H29.4066V47H30.2346V45.032L31.7346 47H32.6886ZM33.926 46.208V45.266H35.516V44.486H33.926V43.592H35.666V42.8H33.098V47H35.696V46.208H33.926ZM37.1076 46.208V45.266H38.6976V44.486H37.1076V43.592H38.8476V42.8H36.2796V47H38.8776V46.208H37.1076ZM41.0273 42.8H39.4613V47H40.2893V45.62H41.0273C41.8373 45.62 42.4613 44.996 42.4613 44.21C42.4613 43.424 41.8373 42.8 41.0273 42.8ZM41.0273 44.846H40.2893V43.574H41.0273C41.3813 43.574 41.6393 43.844 41.6393 44.21C41.6393 44.57 41.3813 44.846 41.0273 44.846Z" fill="#0066FF"/>
<g style="mix-blend-mode:multiply">
<rect x="15.084" width="19" height="12" fill="#0066FF"/>
</g>
</svg>
