<svg width="64" height="64" viewBox="0 0 64 64" fill="none" xmlns="http://www.w3.org/2000/svg">
<path d="M44.0001 13.3334C39.8934 13.3334 35.8934 15.9734 34.5067 19.6267H29.5201C28.1067 15.9734 24.1067 13.3334 20.0001 13.3334C14.6667 13.3334 10.6667 17.3334 10.6667 22.6667C10.6667 30.3734 19.0401 37.9734 31.7334 49.4667L32.0001 49.7334L32.2667 49.4667C44.9601 37.9734 53.3334 30.3734 53.3334 22.6667C53.3334 17.3334 49.3334 13.3334 44.0001 13.3334Z" fill="white"/>
<path d="M43.9999 8C39.3599 8 34.9066 10.16 31.9999 13.5733C29.0933 10.16 24.6399 8 19.9999 8C11.7866 8 5.33325 14.4533 5.33325 22.6667C5.33325 32.7467 14.3999 40.96 28.1333 53.44L31.9999 56.9333L35.8666 53.4133C49.5999 40.96 58.6666 32.7467 58.6666 22.6667C58.6666 14.4533 52.2133 8 43.9999 8ZM32.2666 49.4667L31.9999 49.7333L31.7333 49.4667C19.0399 37.9733 10.6666 30.3733 10.6666 22.6667C10.6666 17.3333 14.6666 13.3333 19.9999 13.3333C24.1066 13.3333 28.1066 15.9733 29.5199 19.6267H34.5066C35.8933 15.9733 39.8933 13.3333 43.9999 13.3333C49.3333 13.3333 53.3333 17.3333 53.3333 22.6667C53.3333 30.3733 44.9599 37.9733 32.2666 49.4667Z" fill="#3385FF"/>
<g style="mix-blend-mode:multiply" filter="url(#filter0_b_4050_1619)">
<circle cx="48" cy="41" r="14" stroke="#0066FF" stroke-width="4"/>
</g>
<g filter="url(#filter1_b_4050_1619)">
<circle cx="48" cy="41" r="12" fill="white"/>
</g>
<path fill-rule="evenodd" clip-rule="evenodd" d="M43.0245 36.5073C43.226 35.6246 43.9963 35 44.8837 35H51.1482C52.0422 35 52.8165 35.6337 53.0114 36.525L53.6472 39.4332C54.4781 39.8832 55 40.7661 55 41.7301V44.75C55 45.6475 54.2877 46.375 53.4091 46.375H53.3837C53.2321 47.2975 52.4462 48 51.5005 48C50.5548 48 49.7689 47.2975 49.6173 46.375H46.3827C46.2313 47.2973 45.446 48 44.5001 48C43.5542 48 42.7689 47.2973 42.6175 46.375H42.5909C41.7123 46.375 41 45.6475 41 44.75V41.7307C41 40.765 41.5238 39.8805 42.3572 39.4313L43.0245 36.5073ZM45.4545 43.2875C45.4545 43.7362 45.0984 44.1 44.6591 44.1C44.2198 44.1 43.8636 43.7362 43.8636 43.2875C43.8636 42.8388 44.2198 42.475 44.6591 42.475C45.0984 42.475 45.4545 42.8388 45.4545 43.2875ZM51.3409 44.1C51.7802 44.1 52.1364 43.7362 52.1364 43.2875C52.1364 42.8388 51.7802 42.475 51.3409 42.475C50.9016 42.475 50.5455 42.8388 50.5455 43.2875C50.5455 43.7362 50.9016 44.1 51.3409 44.1ZM45.965 37.275C45.3685 37.275 44.852 37.6982 44.7226 38.293L44.3077 40.2H51.6923L51.2774 38.293C51.148 37.6982 50.6316 37.275 50.035 37.275H45.965Z" fill="#0066FF"/>
<defs>
<filter id="filter0_b_4050_1619" x="22" y="15" width="52" height="52" filterUnits="userSpaceOnUse" color-interpolation-filters="sRGB">
<feFlood flood-opacity="0" result="BackgroundImageFix"/>
<feGaussianBlur in="BackgroundImage" stdDeviation="5"/>
<feComposite in2="SourceAlpha" operator="in" result="effect1_backgroundBlur_4050_1619"/>
<feBlend mode="normal" in="SourceGraphic" in2="effect1_backgroundBlur_4050_1619" result="shape"/>
</filter>
<filter id="filter1_b_4050_1619" x="26" y="19" width="44" height="44" filterUnits="userSpaceOnUse" color-interpolation-filters="sRGB">
<feFlood flood-opacity="0" result="BackgroundImageFix"/>
<feGaussianBlur in="BackgroundImage" stdDeviation="5"/>
<feComposite in2="SourceAlpha" operator="in" result="effect1_backgroundBlur_4050_1619"/>
<feBlend mode="normal" in="SourceGraphic" in2="effect1_backgroundBlur_4050_1619" result="shape"/>
</filter>
</defs>
</svg>
