<svg width="12" height="12" viewBox="0 0 12 12" fill="none" xmlns="http://www.w3.org/2000/svg">
<path d="M9.13622 11.6764L10.1257 11.001C10.4455 10.7874 10.6746 10.4845 10.7756 10.1413L11.9476 6.0271C12.0194 5.81857 12.0174 5.59556 11.9416 5.38811C11.8659 5.18067 11.7202 4.99875 11.5241 4.86685L11.1334 4.62123C10.9296 4.49399 10.6854 4.42723 10.436 4.43054H8.81127L8.83682 4.35621C8.99017 3.88759 9.20194 3.16041 9.38815 2.57544L9.42101 2.47849C9.53601 2.09953 9.53601 1.70043 9.42101 1.32147C9.32417 1.01084 9.13258 0.729804 8.86723 0.509181C8.60189 0.288558 8.27304 0.136864 7.91674 0.0707325C7.63453 -0.00939276 7.33333 -0.0216908 7.04399 0.0350975C6.75465 0.0918858 6.48756 0.21572 6.27006 0.393921C5.96336 0.694486 5.71509 1.44428 5.37188 2.55282C5.25139 2.94065 5.11629 3.38018 5.04692 3.52239C4.73909 4.13623 4.317 4.69995 3.79823 5.19004L3.77997 5.2062H2.47286C2.28359 5.21539 2.1023 5.27672 1.95435 5.3816C1.80639 5.48649 1.69918 5.62969 1.64769 5.79117L0.0229366 11.4405C-0.000463138 11.5083 -0.00605384 11.58 0.00660182 11.65C0.0192575 11.72 0.0498182 11.7865 0.0959531 11.8445C0.142978 11.8954 0.202774 11.936 0.270589 11.9629C0.338403 11.9898 0.412371 12.0024 0.48663 11.9996H1.91423C2.10349 11.99 2.28458 11.9281 2.43197 11.8226C2.57935 11.7171 2.6856 11.5732 2.73574 11.4114L2.80512 11.1723H3.04974C3.1469 11.1686 3.24205 11.1974 3.31628 11.2531L3.90046 11.7314C4.12194 11.9072 4.40992 12.0029 4.70737 11.9996H8.16136C8.51735 11.9885 8.85957 11.875 9.13622 11.6764ZM2.04932 10.6099C2.01134 10.7311 1.93139 10.8387 1.82069 10.9175C1.71 10.9964 1.57415 11.0425 1.43228 11.0494C1.36984 11.0512 1.30782 11.0398 1.25132 11.0162C1.19483 10.9926 1.14548 10.9575 1.10733 10.9137C1.06939 10.8678 1.04375 10.8148 1.03236 10.7588C1.02098 10.7028 1.02413 10.6453 1.0416 10.5905C1.07978 10.4688 1.1603 10.3609 1.27172 10.282C1.38313 10.2031 1.51979 10.1572 1.6623 10.151C1.72431 10.1496 1.78586 10.1608 1.8422 10.1838C1.89854 10.2067 1.94816 10.2409 1.98726 10.2835C2.02465 10.3303 2.04964 10.3839 2.06039 10.4404C2.07113 10.4969 2.06735 10.5549 2.04932 10.6099ZM10.3521 8.67078L10.1695 9.31715C10.1587 9.38024 10.1216 9.43745 10.0655 9.47753C10.0094 9.51761 9.9384 9.53764 9.86645 9.53369H6.91997C6.84759 9.5337 6.77595 9.52094 6.70922 9.49613C6.64249 9.47133 6.58203 9.43499 6.53136 9.38924C6.4807 9.34349 6.44085 9.28925 6.41417 9.2297C6.38748 9.17016 6.37449 9.10649 6.37595 9.04244V8.96811C6.37786 8.83779 6.43744 8.71333 6.54189 8.62148C6.64635 8.52962 6.78734 8.4777 6.93457 8.47686H7.25953H7.42383H10.1512C10.1838 8.47572 10.2163 8.48125 10.246 8.49302C10.2758 8.5048 10.3021 8.52249 10.3228 8.54473C10.3395 8.56431 10.3509 8.58706 10.3559 8.61117C10.361 8.63529 10.3597 8.66012 10.3521 8.68371V8.67078ZM10.8121 7.05484C10.8121 7.10008 10.7537 7.25521 10.7099 7.41681L10.6442 7.64627C10.6334 7.71135 10.5956 7.77054 10.5383 7.81236C10.4809 7.85417 10.408 7.87561 10.3338 7.8725H7.31064C7.18966 7.8464 7.0821 7.78503 7.00528 7.69827C6.92846 7.61152 6.88684 7.50441 6.88711 7.39418V7.29399C6.88806 7.16397 6.94684 7.03951 7.05071 6.94757C7.15458 6.85562 7.2952 6.8036 7.44209 6.80275H10.5638C10.6038 6.79979 10.6439 6.80494 10.6813 6.81783C10.7186 6.83071 10.7521 6.85098 10.7792 6.87708C10.803 6.9042 10.8185 6.93628 10.8243 6.97024C10.8301 7.00419 10.8259 7.03889 10.8121 7.07099V7.05484ZM10.4251 5.15449C10.509 5.15204 10.5918 5.17234 10.6624 5.21266L11.0531 5.45828C11.11 5.50559 11.1503 5.56644 11.1691 5.63352C11.1878 5.7006 11.1843 5.77106 11.159 5.83641L11.1005 6.03679C11.0713 6.13698 11.0166 6.22747 10.7975 6.22747H7.9423C7.87085 6.22833 7.79992 6.21672 7.73354 6.1933C7.66717 6.16989 7.60665 6.13513 7.55545 6.09101C7.50426 6.0469 7.46338 5.99428 7.43516 5.93618C7.40694 5.87808 7.39192 5.81563 7.39097 5.75239V5.6522C7.39097 5.50676 7.47129 5.17065 8.16501 5.17065L10.4251 5.15449ZM5.31346 11.1626L5.35363 11.2434H4.69641C4.59969 11.2482 4.50447 11.2205 4.42989 11.1658L3.8457 10.6842C3.63308 10.517 3.35968 10.423 3.0753 10.4192H3.00958L4.3532 5.73623C4.94219 5.184 5.4223 4.54818 5.77351 3.85527C5.91999 3.50129 6.04192 3.13972 6.13862 2.77259C6.40516 1.91291 6.67535 1.09524 6.84695 0.920718C6.96862 0.84245 7.10997 0.79155 7.25881 0.772407C7.40765 0.753264 7.55952 0.766452 7.70132 0.810834C7.91742 0.84526 8.11901 0.930692 8.28482 1.05811C8.45062 1.18554 8.57447 1.35022 8.64331 1.53478C8.71626 1.78711 8.71626 2.05163 8.64331 2.30397L8.61411 2.40415C8.47536 2.85985 8.05913 4.23017 7.9423 4.5275V4.55336V4.60183H7.89849C7.60138 4.63013 7.32615 4.75344 7.12448 4.94862C6.9228 5.1438 6.80854 5.39743 6.80314 5.66189V5.76208C6.80315 5.94981 6.85718 6.13445 6.96013 6.29857L6.99665 6.35028L6.93457 6.37937C6.74288 6.47162 6.58234 6.60733 6.46942 6.7726C6.3565 6.93786 6.29525 7.12673 6.29197 7.31985V7.42004C6.28946 7.60559 6.34237 7.78843 6.44532 7.95007L6.47818 7.99855L6.41976 8.02763C6.22878 8.11951 6.06892 8.25478 5.95661 8.41951C5.84431 8.58424 5.78362 8.77249 5.78081 8.96488V9.06507C5.77787 9.26343 5.83865 9.45845 5.95607 9.62742L5.99258 9.68236L5.92685 9.71144C5.73008 9.80114 5.56481 9.9368 5.44895 10.1037C5.3331 10.2707 5.27109 10.4625 5.26965 10.6584V10.7586C5.25426 10.9 5.27039 11.0428 5.31711 11.1787L5.31346 11.1626ZM5.86113 10.7327V10.6487C5.86209 10.5187 5.92087 10.3942 6.02474 10.3023C6.12861 10.2103 6.26921 10.1583 6.41611 10.1574H9.31512C9.48673 10.1574 9.58897 10.1962 9.61818 10.277C9.62769 10.3185 9.62304 10.3615 9.60484 10.4007C9.58663 10.4398 9.55569 10.4733 9.51595 10.4968L8.64697 11.0915C8.50428 11.1779 8.33763 11.2282 8.16501 11.2369H6.40515C6.33326 11.2369 6.26209 11.2242 6.19581 11.1996C6.12952 11.1749 6.06946 11.1388 6.01913 11.0934C5.96881 11.0479 5.92923 10.9941 5.90273 10.9349C5.87622 10.8757 5.86333 10.8125 5.86479 10.7489L5.86113 10.7327Z" fill="#EE7800"/>
</svg>
