<svg width="142" height="44" viewBox="0 0 142 44" fill="none" xmlns="http://www.w3.org/2000/svg">
<path d="M4.04555 24.8883H12.8361L16.8107 10.3918H21.8092L20.3796 15.5978H29.3426L28.8154 17.4999H19.8524L17.8246 24.8883H27.8826L27.3553 26.8005H3.51831L4.04555 24.8883Z" fill="#0066FF"/>
<path d="M44.0239 16.3086L45.2711 14.907L44.8858 16.3086H56.1605L56.6471 14.5366H45.6057L46.7007 13.3152H58.5127L58.9994 11.5031H48.3229L49.3368 10.3718H44.612L39.2484 16.3086H44.0239ZM30.1942 26.8005H34.7163L38.5793 19.7325H34.0876L30.1942 26.8005ZM40.3333 14.4264L39.3194 10.3718H34.5743L35.5882 14.4264H40.3333ZM33.3171 14.907L34.331 19.1218H38.782L37.7681 14.907H33.3171ZM53.8994 24.7281L55.3696 19.362C55.6028 18.5011 55.5521 17.57 54.0414 17.57H39.8466L39.3701 19.342H50.3305C50.5941 19.342 50.8374 19.342 50.7462 19.7024C50.6549 20.0628 49.6106 23.8371 49.0631 25.8094C48.8603 26.5502 49.3774 26.8105 49.9148 26.8105H55.2682L55.765 25.0085H54.1225C53.8994 25.0285 53.8082 24.8983 53.8994 24.7281Z" fill="#0066FF"/>
<path d="M81.1635 16.4788H78.507L82.5018 10.3718H77.4323L66.6747 26.8005H71.7443L76.5603 19.4321L77.8277 26.8005H82.8973L81.1635 16.4788ZM69.4832 14.4064L68.0232 10.4019H62.9536L64.363 14.4064H69.4832ZM65.7622 24.7281L67.79 17.2096C68.0333 16.3486 67.9826 15.4176 66.4618 15.4176H61.4835L60.9968 17.3097H62.7712C63.0449 17.3097 63.2781 17.3097 63.1869 17.6701L60.9968 25.8094C60.794 26.5502 61.3111 26.8105 61.8485 26.8105H65.823L66.9992 25.0085H66.0562C65.8129 25.0285 65.7115 24.8983 65.7622 24.7281Z" fill="#0066FF"/>
<path d="M53.8994 39.2346H69.2095L69.5846 37.8129H54.234L53.8994 39.2346ZM70.7405 30.2243H57.0932L56.7181 31.6459H70.3247L70.7405 30.2243ZM83.029 33.9085H88.4839L88.8185 32.627H83.3028L83.7591 30.8851H87.6727C87.9851 30.9036 88.2969 30.8401 88.5765 30.7012C88.8561 30.5623 89.0935 30.3529 89.2646 30.0942L89.9743 29.0229H86.1417L85.8781 29.3834C85.8375 29.4572 85.7749 29.517 85.6987 29.5546C85.6225 29.5922 85.5365 29.6058 85.4523 29.5936H74.5527L74.1776 30.9151H80.2611L79.8048 32.6571H74.1776L73.843 33.9385H79.4702L79.014 35.6405H72.4945L72.1498 36.9219H78.6794L78.0812 39.1745H75.5667L75.1915 40.4259H81.275L82.2078 36.9219H88.1189L88.4534 35.6405H82.5424L83.029 33.9085ZM100.154 37.0821L100.478 35.8307H105.862L106.187 34.5893H100.813L101.442 32.2166H97.9335L97.3049 34.5893H94.7904L97.5584 31.5859H107.525L107.86 30.3044H98.7345L99.9106 29.033H96.2099L95.0337 30.3545H91.992L91.6473 31.6359H93.8576L91.2823 34.379L90.8868 35.8707H96.9703L96.6357 37.1222H89.9642L89.6397 38.3636H96.3112L95.7536 40.4359H99.2617L99.8092 38.3636H105.741L106.075 37.1222L100.154 37.0821Z" fill="#0066FF"/>
<path d="M95.4393 14.4064L93.9793 10.3718H88.8793L90.2887 14.4064H95.4393Z" fill="#0066FF"/>
<path d="M91.7183 24.7281L93.7461 17.2095C93.9895 16.3485 93.9388 15.4175 92.4179 15.4175H87.4396L86.9225 17.3096H88.6867C88.9605 17.3096 89.1937 17.3096 89.1024 17.67C89.0112 18.0304 87.4092 23.837 86.8718 25.8093C86.669 26.5501 87.1861 26.8104 87.7235 26.8104H91.698L92.8843 25.0084H91.9312C91.769 25.0284 91.6777 24.8983 91.7183 24.7281Z" fill="#0066FF"/>
<path d="M104.686 25.0085L106.288 19.1718H110.729L111.206 17.3297H106.795L108.144 12.254H112.534L113.021 10.3718H97.1529L96.6358 12.254H103.561L100.103 25.0085H98.2885L101.107 14.7468H97.1123L94.3038 25.0085H93.8171L92.6309 26.8005H108.742L109.208 25.0085H104.686Z" fill="#0066FF"/>
<path d="M54.3253 29.0229H2.96061L0 40.4259H51.3545L54.3253 29.0229Z" fill="#0066FF"/>
<path d="M23.2185 31.1453L17.7434 38.3535H20.6432L21.4848 37.1321H25.003L25.1957 38.3535H28.1056L26.3718 31.1453H23.2185ZM22.4682 35.6804L24.344 32.8873L24.7698 35.6804H22.4682ZM30.032 38.3735H32.8811L34.7467 31.1553H31.9077L30.032 38.3735ZM13.3735 33.548C12.8564 33.4079 11.9033 33.2577 11.9946 32.8973C12.0858 32.5369 12.5928 32.2566 13.2011 32.2566C14.0021 32.2566 15.0464 32.3967 14.8335 33.2577H17.3987C17.3987 31.796 16.6383 31.0151 13.9311 31.0151C12.3596 31.0151 10.1087 31.746 9.75383 33.0875C9.39896 34.429 10.9807 35.0097 12.0453 35.2099C12.8767 35.3601 14.5902 35.5403 14.3975 36.2811C14.3265 36.5514 14.1238 36.7517 13.7182 36.9219C13.2403 37.1023 12.7275 37.1742 12.2176 37.1321C12.0508 37.1592 11.8798 37.1448 11.7202 37.09C11.5605 37.0353 11.4172 36.942 11.3033 36.8186C11.1895 36.6952 11.1087 36.5457 11.0683 36.3837C11.0278 36.2216 11.0291 36.0521 11.0719 35.8907H8.71964C8.39519 38.3234 10.9908 38.4236 12.2987 38.4236C13.6067 38.4236 16.0502 38.2834 16.8816 36.2811C17.7941 34.0386 14.8741 33.9285 13.3938 33.548H13.3735ZM42.7769 35.4402C42.5982 35.8979 42.2796 36.2895 41.8653 36.5603C41.4511 36.8312 40.9617 36.9681 40.4651 36.9519C40.1833 36.9939 39.8953 36.9609 39.6307 36.8563C39.3662 36.7517 39.1346 36.5793 38.96 36.3569C38.7854 36.1345 38.6741 35.8702 38.6374 35.5911C38.6008 35.3121 38.6402 35.0284 38.7516 34.7694C38.8803 34.1075 39.2611 33.5195 39.8156 33.1265C40.3702 32.7335 41.0563 32.5655 41.7325 32.657C43.0709 32.657 43.2331 33.3778 43.2534 33.7082H45.707C45.6158 31.9963 43.9327 30.9751 42.1381 30.9751C37.8087 30.9751 36.6326 33.4479 36.2574 34.8996C36.0881 35.3646 36.0563 35.8676 36.1658 36.3499C36.2754 36.8321 36.5216 37.2736 36.8759 37.6227C37.8002 38.2879 38.943 38.5879 40.0798 38.4636C41.1951 38.4636 43.9733 38.1432 45.1494 35.7705L45.2913 35.4402H42.7769Z" fill="white"/>
<path d="M133.775 39.4248L136.523 37.3325C137.411 36.6709 138.047 35.7325 138.328 34.6694L141.582 21.925C141.782 21.279 141.776 20.5882 141.566 19.9456C141.356 19.303 140.951 18.7394 140.406 18.3309L139.321 17.57C138.755 17.1759 138.077 16.9691 137.385 16.9793H132.873L132.944 16.7491C133.37 15.2974 133.958 13.0449 134.475 11.2328L134.566 10.9325C134.885 9.75858 134.885 8.52228 134.566 7.34839C134.297 6.38615 133.765 5.51559 133.028 4.83217C132.291 4.14874 131.378 3.67885 130.389 3.47399C129.605 3.22579 128.769 3.18769 127.965 3.3636C127.162 3.53952 126.42 3.92312 125.816 4.47513C124.964 5.40619 124.275 7.72882 123.322 11.1627C122.987 12.3641 122.612 13.7256 122.419 14.1661C121.565 16.0676 120.393 17.8139 118.952 19.332L118.901 19.3821H115.271C114.746 19.4105 114.242 19.6005 113.832 19.9254C113.421 20.2503 113.123 20.6939 112.98 21.1941L108.468 38.694C108.403 38.9041 108.388 39.126 108.423 39.3429C108.458 39.5598 108.543 39.7659 108.671 39.9454C108.801 40.1033 108.968 40.2289 109.156 40.3123C109.344 40.3957 109.55 40.4346 109.756 40.426H113.72C114.246 40.3963 114.749 40.2045 115.158 39.8776C115.567 39.5507 115.862 39.1052 116.001 38.6039L116.194 37.8631H116.873C117.143 37.8517 117.407 37.9411 117.614 38.1134L119.236 39.595C119.851 40.1395 120.651 40.4361 121.477 40.426H131.068C132.057 40.3915 133.007 40.0401 133.775 39.4248ZM114.095 36.1211C113.99 36.4965 113.768 36.8298 113.46 37.0741C113.153 37.3183 112.776 37.4612 112.382 37.4826C112.208 37.4881 112.036 37.4529 111.879 37.3798C111.722 37.3067 111.585 37.1978 111.479 37.0622C111.374 36.9199 111.303 36.7558 111.271 36.5824C111.24 36.4089 111.248 36.2306 111.297 36.061C111.403 35.6841 111.627 35.3496 111.936 35.1052C112.245 34.8608 112.625 34.7189 113.021 34.6995C113.193 34.6951 113.364 34.7299 113.52 34.8011C113.677 34.8722 113.814 34.9779 113.923 35.1099C114.027 35.2549 114.096 35.421 114.126 35.5961C114.156 35.7711 114.145 35.9506 114.095 36.1211ZM137.152 30.1143L136.645 32.1165C136.615 32.312 136.512 32.4892 136.356 32.6133C136.2 32.7375 136.003 32.7995 135.803 32.7873H127.621C127.42 32.7873 127.221 32.7478 127.036 32.6709C126.85 32.5941 126.682 32.4815 126.542 32.3398C126.401 32.1981 126.29 32.0301 126.216 31.8456C126.142 31.6612 126.106 31.464 126.11 31.2656V31.0353C126.115 30.6316 126.281 30.2461 126.571 29.9615C126.861 29.677 127.253 29.5162 127.661 29.5136H128.564H129.02H136.594C136.684 29.51 136.774 29.5272 136.857 29.5636C136.94 29.6001 137.013 29.6549 137.07 29.7238C137.117 29.7845 137.148 29.8549 137.162 29.9296C137.176 30.0043 137.173 30.0813 137.152 30.1543V30.1143ZM138.429 25.1086C138.429 25.2487 138.267 25.7293 138.145 26.2298L137.963 26.9407C137.933 27.1422 137.828 27.3256 137.669 27.4551C137.509 27.5847 137.307 27.6511 137.101 27.6415H128.706C128.37 27.5606 128.071 27.3705 127.858 27.1017C127.644 26.833 127.529 26.5012 127.53 26.1598V25.8494C127.532 25.4466 127.695 25.0611 127.984 24.7763C128.272 24.4915 128.663 24.3303 129.071 24.3277H137.74C137.851 24.3185 137.962 24.3345 138.066 24.3744C138.169 24.4143 138.263 24.4771 138.338 24.5579C138.404 24.642 138.447 24.7413 138.463 24.8465C138.479 24.9517 138.467 25.0592 138.429 25.1586V25.1086ZM137.354 19.2219C137.588 19.2143 137.817 19.2772 138.013 19.4021L139.098 20.163C139.256 20.3095 139.368 20.498 139.42 20.7058C139.473 20.9136 139.463 21.1318 139.392 21.3343L139.23 21.955C139.149 22.2653 138.997 22.5457 138.389 22.5457H130.46C130.261 22.5483 130.064 22.5123 129.88 22.4398C129.696 22.3673 129.528 22.2596 129.386 22.123C129.243 21.9863 129.13 21.8233 129.052 21.6433C128.973 21.4634 128.931 21.2699 128.929 21.074V20.7636C128.929 20.3131 129.152 19.2719 131.078 19.2719L137.354 19.2219ZM123.16 37.833L123.271 38.0833H121.446C121.178 38.0984 120.913 38.0126 120.706 37.843L119.084 36.3514C118.493 35.8334 117.734 35.5421 116.944 35.5304H116.762L120.493 21.0239C122.129 19.3133 123.462 17.3437 124.437 15.1973C124.844 14.1008 125.183 12.9808 125.451 11.8435C126.191 9.18047 126.942 6.6476 127.418 6.10698C127.756 5.86453 128.148 5.70686 128.562 5.64756C128.975 5.58826 129.397 5.62911 129.791 5.7666C130.391 5.87323 130.951 6.13788 131.411 6.53259C131.871 6.9273 132.215 7.43744 132.407 8.00914C132.609 8.79079 132.609 9.61021 132.407 10.3919L132.325 10.7022C131.94 12.1138 130.784 16.3586 130.46 17.2797V17.3598V17.5099H130.338C129.513 17.5976 128.749 17.9796 128.189 18.5842C127.629 19.1888 127.311 19.9744 127.296 20.7937V21.104C127.296 21.6856 127.446 22.2575 127.732 22.7659L127.834 22.9261L127.661 23.0162C127.129 23.302 126.683 23.7223 126.37 24.2343C126.056 24.7462 125.886 25.3313 125.877 25.9295V26.2399C125.87 26.8146 126.017 27.381 126.303 27.8817L126.394 28.0319L126.232 28.122C125.701 28.4066 125.258 28.8256 124.946 29.3359C124.634 29.8462 124.465 30.4293 124.457 31.0253V31.3356C124.449 31.9501 124.618 32.5542 124.944 33.0776L125.046 33.2478L124.863 33.3379C124.317 33.6158 123.858 34.036 123.536 34.5531C123.214 35.0702 123.042 35.6644 123.038 36.2713V36.5816C122.995 37.0198 123.04 37.462 123.17 37.8831L123.16 37.833ZM124.681 36.5015V36.2412C124.683 35.8384 124.846 35.4529 125.135 35.1681C125.423 34.8833 125.814 34.7221 126.222 34.7195H134.272C134.749 34.7195 135.033 34.8396 135.114 35.0899C135.14 35.2184 135.127 35.3517 135.077 35.473C135.026 35.5942 134.94 35.6978 134.83 35.7707L132.417 37.6128C132.02 37.8805 131.558 38.0363 131.078 38.0633H126.191C125.992 38.0633 125.794 38.024 125.61 37.9477C125.426 37.8714 125.259 37.7595 125.119 37.6188C124.98 37.478 124.87 37.3111 124.796 37.1278C124.722 36.9446 124.687 36.7487 124.691 36.5516L124.681 36.5015Z" fill="#FF6E00"/>
</svg>
