<svg id="图层_1" data-name="图层 1" xmlns="http://www.w3.org/2000/svg" viewBox="0 0 141.74 37.18"><defs><style>.cls-1{fill:#fff;}</style></defs><title>logo2</title><path class="cls-1" d="M4.05,21.64h8.79l4-14.5h5l-1.46,5.21h9l-.52,1.9h-9l-2,7.39h10l-.52,1.91H3.52Z" transform="translate(0 -0.01)"/><path class="cls-1" d="M44,13.06l1.25-1.4-.38,1.4H56.16l.49-1.77h-11l1.09-1.22H58.51L59,8.25H48.32l1-1.13H44.61l-5.36,5.94ZM30.19,23.55h4.53l3.86-7.07H34.09ZM40.33,11.18l-1-4.06H34.57l1,4.06Zm-7,.48,1,4.21h4.45l-1-4.21ZM53.9,21.48l1.47-5.37c.23-.86.18-1.79-1.33-1.79H39.85l-.48,1.77h11c.26,0,.51,0,.42.36s-1.14,4.14-1.69,6.11c-.2.74.32,1,.85,1h5.36l.49-1.8H54.12C53.9,21.75,53.81,21.65,53.9,21.48Z" transform="translate(0 -0.01)"/><path class="cls-1" d="M81.16,13.23H78.51l4-6.11H77.43L66.67,23.55h5.07l4.82-7.37,1.27,7.37H82.9ZM69.48,11.16,68,7.15H63l1.41,4ZM65.76,21.48l2-7.52c.24-.86.19-1.79-1.33-1.79h-5L61,14.06h1.77c.27,0,.51,0,.42.36L61,22.56c-.21.74.31,1,.85,1h4L67,21.75h-.94C65.81,21.75,65.71,21.65,65.76,21.48Z" transform="translate(0 -0.01)"/><path class="cls-1" d="M53.9,36H69.21l.37-1.42H54.23Zm16.84-9H57.09l-.37,1.43h13.6ZM83,30.66h5.45l.34-1.28H83.3l.46-1.74h3.91a1.89,1.89,0,0,0,.91-.19,1.74,1.74,0,0,0,.68-.61L90,25.75H86.14l-.26.36a.37.37,0,0,1-.18.17.36.36,0,0,1-.25,0H74.55l-.37,1.33h6.08l-.46,1.74H74.18l-.34,1.28h5.63L79,32.39H72.49l-.34,1.28h6.53l-.6,2.25H75.57l-.38,1.26h6.09l.93-3.51h5.91l.33-1.28H82.54Zm17.12,3.17.33-1.25h5.38l.33-1.24h-5.38l.63-2.37H97.93l-.63,2.37H94.79l2.77-3h10l.33-1.29H98.73l1.18-1.3h-3.7L95,27.1H92l-.34,1.29h2.21l-2.58,2.74-.39,1.49H97l-.33,1.25H90l-.32,1.24h6.67l-.56,2.08H99.3l.55-2.08h5.93l.33-1.24Z" transform="translate(0 -0.01)"/><path class="cls-1" d="M95.44,11.16,94,7.16h-5.1l1.41,4Z" transform="translate(0 -0.01)"/><path class="cls-1" d="M91.72,21.48l2-7.52c.24-.86.19-1.79-1.33-1.79h-5l-.52,1.89h1.77c.27,0,.5,0,.41.36s-1.69,6.17-2.23,8.14c-.2.74.32,1,.85,1h4l1.21-1.81h-.95A.2.2,0,0,1,91.72,21.48Z" transform="translate(0 -0.01)"/><path class="cls-1" d="M104.69,21.75l1.6-5.84h4.44l.48-1.84h-4.42L108.14,9h4.39L113,7.11H97.15L96.64,9h6.92L100.1,21.75H98.29l2.82-10.26h-4L94.3,21.75h-.48l-1.19,1.8h16.11l.47-1.79Z" transform="translate(0 -0.01)"/><polygon class="cls-1" points="22.47 32.41 24.77 32.41 24.34 29.63 22.47 32.41"/><path class="cls-1" d="M3,25.75,0,37.18H51.35l3-11.43ZM13.2,29a1.2,1.2,0,0,0-1.21.64c-.09.36.87.51,1.38.65h0c1.49.38,4.4.49,3.49,2.73-.83,2-3.28,2.14-4.58,2.14s-3.9-.1-3.58-2.53h2.35a1,1,0,0,0,1.15,1.24,3.49,3.49,0,0,0,1.5-.21c.4-.17.61-.37.68-.64.19-.74-1.52-.92-2.35-1.07-1-.21-2.66-.78-2.3-2.12s2.61-2.07,4.18-2.07c2.71,0,3.47.78,3.47,2.24H14.83C15,29.15,14,29,13.2,29Zm12,6.09L25,33.88H21.48l-.84,1.22h-2.9l5.48-7.2h3.15l1.74,7.2Zm7.65,0H30l1.91-7.21h2.81Zm5.79-2.78a1.59,1.59,0,0,0,.32.77,1.67,1.67,0,0,0,.67.5,1.71,1.71,0,0,0,.84.09,2.42,2.42,0,0,0,1.4-.39,2.38,2.38,0,0,0,.91-1.12l2.51,0-.14.33c-1.18,2.37-4,2.69-5.07,2.69a4.55,4.55,0,0,1-3.2-.84,2.58,2.58,0,0,1-.62-2.72c.37-1.45,1.55-3.92,5.88-3.92,1.79,0,3.48,1,3.57,2.71H43.25c0-.33-.18-1-1.52-1a2.65,2.65,0,0,0-1.91.47,2.61,2.61,0,0,0-1.07,1.64A1.54,1.54,0,0,0,38.64,32.34Z" transform="translate(0 -0.01)"/><path class="cls-1" d="M133.77,36.17l2.75-2.09a4.87,4.87,0,0,0,1.81-2.66l3.25-12.75a3.23,3.23,0,0,0,0-2A3.32,3.32,0,0,0,140.42,15l-1.09-.76a3.32,3.32,0,0,0-1.94-.59h-4.51l.07-.23c.43-1.45,1-3.71,1.54-5.52l.09-.3a7,7,0,0,0,0-3.58A5.55,5.55,0,0,0,133,1.58,5.62,5.62,0,0,0,130.36.22,4.88,4.88,0,0,0,128,.11a4.61,4.61,0,0,0-2.14,1.12c-.86.93-1.54,3.25-2.5,6.68-.33,1.2-.71,2.57-.9,3A18.5,18.5,0,0,1,119,16.08v0h-3.63a2.54,2.54,0,0,0-1.44.55,2.43,2.43,0,0,0-.85,1.26l-4.51,17.5a1.44,1.44,0,0,0,0,.65,1.49,1.49,0,0,0,.25.61,1.36,1.36,0,0,0,.49.36,1.34,1.34,0,0,0,.6.12h4a2.58,2.58,0,0,0,1.44-.55,2.47,2.47,0,0,0,.65-1.28l.19-.74h.68a1.09,1.09,0,0,1,.74.25l1.63,1.49a3.32,3.32,0,0,0,2.24.83h9.59A4.56,4.56,0,0,0,133.77,36.17Zm-19.67-3.3a1.9,1.9,0,0,1-1.72,1.36,1.09,1.09,0,0,1-.5-.1,1.08,1.08,0,0,1-.61-.8,1.15,1.15,0,0,1,0-.52,1.78,1.78,0,0,1,.64-1,1.87,1.87,0,0,1,1.09-.36,1.24,1.24,0,0,1,.5.1,1.11,1.11,0,0,1,.4.31,1.08,1.08,0,0,1,.21.49A1.31,1.31,0,0,1,114.1,32.87Zm23.05-6-.5,2a.8.8,0,0,1-.29.49.82.82,0,0,1-.56.18h-8.18a1.43,1.43,0,0,1-.58-.12,1.56,1.56,0,0,1-.5-.33,1.43,1.43,0,0,1-.32-.49,1.49,1.49,0,0,1-.11-.58v-.27a1.52,1.52,0,0,1,.46-1.08,1.62,1.62,0,0,1,1.09-.45h8.93a.86.86,0,0,1,.27,0,.65.65,0,0,1,.21.16.4.4,0,0,1,.09.21.41.41,0,0,1,0,.22Zm1.28-5c0,.14-.16.62-.28,1.12l-.19.71a.83.83,0,0,1-.29.52.88.88,0,0,1-.57.18h-8.39a1.51,1.51,0,0,1-.85-.54,1.48,1.48,0,0,1-.33-.94v-.31a1.49,1.49,0,0,1,.45-1.07,1.54,1.54,0,0,1,1.09-.45h8.67a.75.75,0,0,1,.33,0,.83.83,0,0,1,.27.19.58.58,0,0,1,.12.29.55.55,0,0,1,0,.31ZM137.35,16a1.15,1.15,0,0,1,.66.18l1.09.76a1.11,1.11,0,0,1,.29,1.17l-.16.62c-.08.32-.23.6-.84.6h-7.93a1.62,1.62,0,0,1-.58-.11,1.43,1.43,0,0,1-.49-.32,1.36,1.36,0,0,1-.34-.48,1.39,1.39,0,0,1-.12-.57v-.31c0-.45.22-1.49,2.15-1.49Zm-14.19,18.6.11.25h-1.82a1,1,0,0,1-.74-.24l-1.63-1.49a3.3,3.3,0,0,0-2.14-.82h-.18l3.73-14.53a21.09,21.09,0,0,0,4-5.82,30.19,30.19,0,0,0,1-3.36c.74-2.66,1.49-5.19,2-5.73a2.53,2.53,0,0,1,1.14-.46,2.56,2.56,0,0,1,1.23.12,3.38,3.38,0,0,1,1.62.76,3.48,3.48,0,0,1,1,1.48,4.8,4.8,0,0,1,0,2.38l-.09.31c-.38,1.41-1.54,5.66-1.86,6.58v.23h-.12a3.44,3.44,0,0,0-2.15,1.07,3.32,3.32,0,0,0-.89,2.21v.31a3.46,3.46,0,0,0,.43,1.67l.1.16-.17.09A3.34,3.34,0,0,0,126.44,21a3.42,3.42,0,0,0-.49,1.7V23a3.26,3.26,0,0,0,.42,1.64l.09.15-.16.09a3.41,3.41,0,0,0-1.3,1.24,3.17,3.17,0,0,0-.49,1.69v.31a3.26,3.26,0,0,0,.48,1.74l.11.17-.19.09a3.42,3.42,0,0,0-1.32,1.21,3.19,3.19,0,0,0-.5,1.72v.31a3.36,3.36,0,0,0,.13,1.3Zm1.52-1.33V33a1.55,1.55,0,0,1,1.54-1.52h8.05c.48,0,.76.12.84.37a.62.62,0,0,1,0,.38.67.67,0,0,1-.25.3l-2.41,1.84a2.59,2.59,0,0,1-1.34.45h-4.89a1.47,1.47,0,0,1-1.07-.44,1.43,1.43,0,0,1-.32-.49,1.46,1.46,0,0,1-.11-.58Z" transform="translate(0 -0.01)"/></svg>