<svg xmlns="http://www.w3.org/2000/svg" viewBox="0 0 504.94 75.45"><defs><style>.cls-1{fill:none;stroke:#231815;stroke-miterlimit:10;stroke-width:0.5px;}.cls-2{fill:#fff;}.cls-3{fill:#06f;}.cls-4{fill:#ff6e00;}</style></defs><g id="图层_2" data-name="图层 2"><g id="图层_1-2" data-name="图层 1"><line class="cls-1" x1="266.5" y1="1.52" x2="266.5" y2="75.45"/><polygon class="cls-2" points="58.75 41.02 56.84 36.42 54.94 41.02 58.75 41.02"/><polygon class="cls-3" points="300.09 37.07 313.17 37.07 319.08 15.22 326.51 15.22 324.38 23.07 337.72 23.07 336.95 25.94 323.61 25.94 320.6 37.07 335.57 37.07 334.79 39.96 299.3 39.96 300.09 37.07"/><path class="cls-3" d="M359.57,24.14l1.86-2.1-.57,2.1h16.78l.72-2.66H361.93l1.63-1.85h17.57l.73-2.73H366l1.51-1.71h-7l-8,9ZM339,40h6.73l5.76-10.66h-6.69Zm15.1-18.65-1.54-6.12h-7.07l1.5,6.12ZM343.64,22l1.51,6.34h6.62L350.3,22ZM374.2,36.83c.43-1.57,1.93-7.13,2.19-8.08.35-1.31.27-2.7-2-2.7H353.32l-.72,2.66h16.31c.4,0,.75,0,.61.55-.09.36-1.68,6.24-2.49,9.21-.3,1.11.47,1.49,1.27,1.49h8l.73-2.72h-2.44c-.29,0-.43-.15-.36-.41"/><path class="cls-3" d="M414.84,24.41h-3.95l5.94-9.22h-7.57L393.28,40h7.57L408,28.85,409.9,40h7.57Zm-17.38-3.13-2.18-6.09h-7.59l2.1,6.09Zm-5.54,15.55L395,25.51c.35-1.31.27-2.71-2-2.71h-7.42l-.77,2.85h2.64c.4,0,.75,0,.61.54l-3.32,12.28c-.3,1.11.47,1.49,1.27,1.49h5.91l1.76-2.72h-1.41c-.29,0-.43-.15-.36-.41"/><path class="cls-3" d="M374.2,58.69h22.85l.56-2.14H374.76Zm25.07-13.53H379l-.56,2.14h20.25Zm18.29,5.55h8.11l.5-1.93h-8.1l.68-2.62h5.82a2.64,2.64,0,0,0,2.37-1.2L428,43.35h-5.75l-.38.55a.65.65,0,0,1-.65.31H405l-.51,1.95h8.94l-.69,2.62h-8.37l-.5,1.93h8.37l-.67,2.57h-9.71l-.51,1.92h9.72l-.89,3.4h-3.74L406,60.49H415l1.38-5.29h8.8l.5-1.92h-8.8ZM443,55.49l.5-1.89h8l.48-1.87h-8l.93-3.56h-5.22l-.93,3.56h-3.74l4.12-4.51H454l.49-1.93H441l1.77-2h-5.51l-1.75,2h-4.55l-.5,1.93h3.29l-3.84,4.15-.58,2.23h9l-.49,1.89h-9.93l-.48,1.87h9.92l-.82,3.13h5.22l.82-3.13h8.82l.49-1.87Z"/><polygon class="cls-3" points="436.09 21.28 433.91 15.19 426.32 15.19 428.42 21.28 436.09 21.28"/><path class="cls-3" d="M430.55,36.83c.42-1.57,2.81-10.38,3.06-11.32.36-1.31.28-2.71-2-2.71h-7.42l-.77,2.85h2.63c.4,0,.76,0,.62.54s-2.52,9.31-3.32,12.28c-.3,1.11.46,1.49,1.26,1.49h5.92l1.76-2.72H430.9c-.28,0-.42-.15-.35-.41"/><polygon class="cls-3" points="449.84 37.25 452.22 28.46 458.83 28.46 459.55 25.68 452.97 25.68 454.99 18.03 461.52 18.03 462.25 15.19 438.63 15.19 437.87 18.03 448.16 18.03 443.02 37.25 440.33 37.25 444.51 21.79 438.58 21.79 434.39 37.25 433.67 37.25 431.91 39.96 455.88 39.96 456.57 37.25 449.84 37.25"/><polygon class="cls-3" points="374.9 43.31 298.48 43.31 294.06 60.49 370.48 60.49 374.9 43.31"/><path class="cls-2" d="M328.61,46.5l-8.14,10.86h4.31L326,55.52h5.24l.29,1.84h4.32L333.31,46.5Zm-1.08,6.84,2.78-4.21.64,4.21Zm11.26,4H343l2.79-10.87h-4.23ZM314,50.13c-.78-.22-2.2-.44-2.06-1s.9-1,1.8-1c1.18,0,2.75.21,2.42,1.49h3.75c-.06-2.2-1.14-3.37-5.16-3.37-2.33,0-5.7,1.09-6.21,3.12s1.82,2.89,3.4,3.19c1.23.23,3.78.5,3.5,1.63-.11.4-.4.69-1,.95a5.1,5.1,0,0,1-2.23.32,1.57,1.57,0,0,1-1.7-1.88H307c-.49,3.68,3.39,3.83,5.33,3.83s5.57-.21,6.82-3.23c1.4-3.38-2.94-3.54-5.14-4.1M357.81,53a3.56,3.56,0,0,1-3.44,2.27c-.91,0-3.3-.36-2.55-3.29a4,4,0,0,1,4.27-3.18c2,0,2.23,1.1,2.26,1.58H362c-.14-2.58-2.64-4.11-5.32-4.11-6.44,0-8.19,3.73-8.75,5.91a3.92,3.92,0,0,0,.93,4.11c1.06,1,2.69,1.27,4.75,1.27,1.66,0,5.81-.48,7.58-4.06l.21-.5Z"/><path class="cls-4" d="M493.13,59l4.1-3.17a7.4,7.4,0,0,0,2.68-4l4.84-19.21A5,5,0,0,0,503,27.19L501.38,26a4.91,4.91,0,0,0-2.88-.88h-6.71l.1-.34c.63-2.19,1.55-5.59,2.29-8.3l.12-.47a10.52,10.52,0,0,0,0-5.4,8.21,8.21,0,0,0-6.22-5.83c-2.74-.66-5.35-.07-6.81,1.55-1.26,1.41-2.29,4.9-3.7,10.07-.5,1.81-1.06,3.86-1.35,4.48a28.09,28.09,0,0,1-5.16,7.78l-.08.08h-5.4a3.74,3.74,0,0,0-3.4,2.73l-6.71,26.37a2.15,2.15,0,0,0,.29,1.88,2,2,0,0,0,1.62.73h5.79a3.76,3.76,0,0,0,3.4-2.74l.28-1.12h1A1.59,1.59,0,0,1,469,57l2.42,2.24a4.89,4.89,0,0,0,3.33,1.25l14.28,0a6.85,6.85,0,0,0,4.1-1.48m-29.28-5a2.82,2.82,0,0,1-2.56,2,1.64,1.64,0,0,1-1.34-.62,1.82,1.82,0,0,1-.27-1.56,2.82,2.82,0,0,1,2.56-2,1.63,1.63,0,0,1,1.34.62,1.77,1.77,0,0,1,.27,1.55m34.3-9-.76,3a1.17,1.17,0,0,1-1.24,1H484a2.25,2.25,0,0,1-2.24-2.29v-.46A2.31,2.31,0,0,1,484,44h1.35a6.23,6.23,0,0,0,.67,0h11.28a.87.87,0,0,1,.71.31.72.72,0,0,1,.11.66m1.9-7.53c-.05.21-.23.94-.42,1.69l-.27,1.06a1.24,1.24,0,0,1-1.28,1.07H485.59a2.27,2.27,0,0,1-1.75-2.23v-.47a2.31,2.31,0,0,1,2.29-2.29H499a1,1,0,0,1,.89.35.89.89,0,0,1,.12.83m-1.6-8.88a1.67,1.67,0,0,1,1,.28L501,30a1.65,1.65,0,0,1,.45,1.76l-.24.94c-.12.46-.35.89-1.26.89H488.2A2.25,2.25,0,0,1,486,31.33v-.47c0-.68.33-2.25,3.19-2.25Zm-21.1,28.06.16.38h-2.72a1.56,1.56,0,0,1-1.09-.37l-2.42-2.24a4.83,4.83,0,0,0-3.18-1.24h-.33l5.59-22,.06,0a31.35,31.35,0,0,0,5.87-8.78,38.87,38.87,0,0,0,1.56-5.06c1.1-4,2.21-7.82,2.92-8.64a3.87,3.87,0,0,1,3.53-.51,5,5,0,0,1,3.79,3.39,7.2,7.2,0,0,1,0,3.6l-.12.47c-.58,2.13-2.3,8.52-2.78,9.9a.84.84,0,0,0,0,.12l-.07.23-.18,0a5.05,5.05,0,0,0-4.55,4.95v.47a4.92,4.92,0,0,0,.65,2.51l.14.24-.25.13a5.05,5.05,0,0,0-2.65,4.38v.47a5,5,0,0,0,.63,2.47l.13.24-.24.13a5.06,5.06,0,0,0-2.63,4.38v.46a4.94,4.94,0,0,0,.73,2.64l.15.24-.26.14A5,5,0,0,0,477,54.18v.47a5,5,0,0,0,.41,2m2.25-2v-.47a2.31,2.31,0,0,1,2.29-2.29h12c.72,0,1.14.19,1.26.56a1,1,0,0,1-.43,1l-3.59,2.77a3.8,3.8,0,0,1-2,.69h-7.29a2.25,2.25,0,0,1-2.24-2.28"/><path class="cls-3" d="M103.79,48H95.06a8.85,8.85,0,0,0-3.86.62,3.4,3.4,0,0,0-1.89,3,3.3,3.3,0,0,0,1.6,2.77,5.76,5.76,0,0,0,2.79.71h4.17a3.63,3.63,0,0,1,1.88.41,1.28,1.28,0,0,1,.64,1.15,1.26,1.26,0,0,1-.67,1.13,4.37,4.37,0,0,1-2,.33H89.31v2.2h9.24c3.22,0,5.69-.73,5.69-3.62S101.8,53,98.69,53H95.15c-1,0-2.3-.11-2.3-1.39s1.26-1.35,2.24-1.35h7.34Z"/><polygon class="cls-3" points="108.93 60.39 104.82 60.39 111.68 48.03 115.76 48.03 122.63 60.39 118.51 60.39 113.7 51.02 111.43 55.17 114.48 55.17 115.7 57.57 110.56 57.57 108.93 60.39"/><rect class="cls-3" x="124.34" y="48.03" width="3.77" height="12.36"/><path class="cls-3" d="M137.87,48h5.79l-1.35,2.21h-4c-2.65,0-4.58.72-4.58,3.76s1.32,4.19,4.52,4.19h5v2.2h-7c-1.55,0-6.42-.44-6.42-6.13S134.52,48,137.87,48Z"/><polygon class="cls-3" points="167.84 48.03 166.5 48.03 165.71 48.03 161.32 55.17 156.94 48.03 156.15 48.03 154.81 48.03 152.81 48.03 152.81 60.39 156.15 60.39 156.15 52.07 159.72 58.19 162.93 58.19 166.5 52.07 166.5 60.39 169.84 60.39 169.84 48.03 167.84 48.03"/><polygon class="cls-3" points="204.84 48.07 190.22 48.07 190.22 50.23 195.65 50.23 195.65 60.39 199.41 60.39 199.41 50.23 203.49 50.23 204.84 48.07"/><path class="cls-3" d="M181.24,47.78c-4.13,0-8.2,1.29-8.2,6.46s4.7,6.39,8.2,6.39,8.2-1.22,8.2-6.39S185.37,47.78,181.24,47.78Zm0,10.69h0c-3.05,0-4.5-1.4-4.5-4.32s1.5-4.21,4.5-4.21h0c3,0,4.49,1.29,4.49,4.21S184.29,58.47,181.24,58.47Z"/><path class="cls-3" d="M213.6,47.78c-4.13,0-8.2,1.29-8.2,6.46s4.69,6.39,8.2,6.39,8.2-1.22,8.2-6.39S217.72,47.78,213.6,47.78Zm0,10.69h0c-3,0-4.5-1.4-4.5-4.32s1.5-4.21,4.5-4.21h0c3,0,4.49,1.29,4.49,4.21S216.65,58.47,213.6,58.47Z"/><path class="cls-3" d="M223.91,48h9.36c2.58,0,4.51.94,4.51,3.7a3.42,3.42,0,0,1-2.86,3.52l3.89,5.14h-3.65l-3.82-5.22h-4.4v5.22h-3V53h7.93c1.16,0,2.36-.33,2.36-1.46s-1.26-1.28-2.57-1.28h-7.72Z"/><polygon class="cls-3" points="108.78 25.71 124.01 25.71 124.01 22.09 108.78 22.09 108.78 15.04 103.21 15.04 103.21 38.03 89.3 38.03 89.3 41.66 126.76 41.66 126.76 38.03 108.78 38.03 108.78 25.71"/><rect class="cls-3" x="140.81" y="22.34" width="20.61" height="3.37"/><path class="cls-3" d="M162.9,19.77V16.58H150.63c.27-.46.56-1,.85-1.54h-5.89c-1.25,2.35-2.06,3-4.78,3V21c3.44,0,5.47-.17,7.05-1.18Z"/><path class="cls-3" d="M161.34,32V28H140.81v3.46H156.4c0,4.55,1.49,7.2,3.4,8.65a9,9,0,0,0,4.59,1.53V38.05C161.88,36.92,161.34,35,161.34,32Z"/><path class="cls-3" d="M136.26,21h2.35V18.05h-1c-.68,0-1.09-.15-1.34-.68s-.95-2.33-.95-2.33h-4.11s1.07,3.44,1.45,4.19S133.77,21,136.26,21Z"/><path class="cls-3" d="M135.33,28.44h3.28V25.53h-1.88c-.69,0-1.09-.16-1.35-.69s-.95-2.33-.95-2.33h-4.11s1.07,3.45,1.46,4.19S132.85,28.44,135.33,28.44Z"/><path class="cls-3" d="M132.56,37.08a1.64,1.64,0,0,1-1.77,1h-.42v3.63h2.49a4.47,4.47,0,0,0,4-3.4c.61-1.84,2.08-6.78,2.08-6.78h-4.34S133.08,36,132.56,37.08Z"/><path class="cls-3" d="M188.74,30.43h12.2v-2.1h-12.2V26.79h12.2V24.86h-12.2V23.24h12.2V21.31h-12.2V19.78h12.2v-2.9h-12.2V15h-5.63v1.84h-4.85c.34-.54.68-1.15,1-1.84h-5.9c-1.24,2.35-2.05,3-4.77,3V21l1.39,0,0,9.5h13.07V32H168.63v3.37H177c-1.36.74-3.39,1.85-4.06,2.12a6.26,6.26,0,0,1-2.61.58h-1.72v3.63h2.71a6.94,6.94,0,0,0,3.86-.79c1.56-.77,6.35-3.87,7.91-4.88v5.59h5.63V36.85c2.07,1.34,5.34,3.41,6.57,4a7,7,0,0,0,3.86.79h2.72V38h-1.73a6.19,6.19,0,0,1-2.6-.58c-.68-.27-2.71-1.38-4.06-2.12h8.39V32H188.74Zm-5.63-5.57h-8.49V23.24h8.49Zm-7.45-5.08h7.45v1.53h-8.49v-1A6.31,6.31,0,0,0,175.66,19.78Zm-1,8.55V26.79h8.49v1.54Z"/><path class="cls-3" d="M206.54,15V41.66h27.71c2.56,0,4.56-1.14,4.56-4.69V15Zm27.37,21.41a1.58,1.58,0,0,1-1.7,1.6H211.16V18.58h22.75Z"/><path class="cls-3" d="M225.84,32.31c0,1.37-1,1.59-1.91,1.59h-2.69v2.76H225c2.91,0,4.76-1.35,4.76-3.95V24.62h2.59V21.8H229.8v-2h-4v2H213v2.82h12.86Z"/><path class="cls-3" d="M217.82,25.72s-1.31,4.9-1.79,6.36-1.15,2-1.87,2h-.75v2.58h1.71c3,0,4.09-1.25,4.68-3.14s2.26-7.81,2.26-7.81Z"/><path class="cls-3" d="M13.76,46.57H61.63l.17-.48.27-.82H13.32c.08.28.17.55.27.82S13.7,46.41,13.76,46.57Z"/><path class="cls-3" d="M19.56,39.93a8,8,0,0,1-2.73.29H7c.07.8.19,1.64.35,2.51H17.68a28.4,28.4,0,0,0,3.23-.13,4.7,4.7,0,0,0,3.3-1.72,3.68,3.68,0,0,0,.78-2.3,4.13,4.13,0,0,0-.59-2.16,4.23,4.23,0,0,0-2.75-1.77,15.21,15.21,0,0,0-3.44-.29H14.79a8,8,0,0,1-2.36-.25,1.42,1.42,0,0,1,.19-2.78,19.75,19.75,0,0,1,2.51-.12h8.33l1.31-2.51H14.58c-1.11,0-1.94,0-2.51.07a5.44,5.44,0,0,0-3.6,1.38,3.83,3.83,0,0,0-1.15,2.7,3.34,3.34,0,0,0,.49,1.76A4,4,0,0,0,9.18,36a9.06,9.06,0,0,0,4.58.86h3.55a5.8,5.8,0,0,1,2.08.27,1.58,1.58,0,0,1,1.16,1.49A1.42,1.42,0,0,1,19.56,39.93Z"/><polygon class="cls-3" points="49.32 28.7 46.29 28.7 46.29 30.45 46.29 42.73 50.39 42.73 50.39 28.7 49.32 28.7"/><path class="cls-3" d="M57,29.29A6.34,6.34,0,0,0,54,31.16a6.85,6.85,0,0,0-1.5,4.59,7.35,7.35,0,0,0,1,4,6.66,6.66,0,0,0,5,2.88,21.43,21.43,0,0,0,2.92.15h6.38a17.68,17.68,0,0,0,.34-2.51H62.38a7.36,7.36,0,0,1-3.6-.67c-1.1-.64-1.74-1.9-1.74-4a4.25,4.25,0,0,1,1.16-3.3,6.18,6.18,0,0,1,4-1.07h5.34c-.16-.85-.41-1.68-.64-2.51H61.68A15.84,15.84,0,0,0,57,29.29Z"/><polygon class="cls-3" points="40.32 42.64 45.07 42.64 40.15 33.98 37.17 28.74 32.51 28.74 24.62 42.64 25.14 42.64 29.37 42.64 31.04 39.43 32.27 39.43 34.41 39.43 37.2 39.43 35.91 36.95 34.99 36.95 34.41 36.95 33.58 36.95 32.33 36.95 34.86 32.09 37.06 36.35 39.85 41.73 39.85 41.74 40.32 42.64"/><path class="cls-3" d="M4.86,44.94c-2.7-12.51,1-26.08,11.47-34.87a34.76,34.76,0,0,1,48.23,3.38h1.86A37.63,37.63,0,0,0,.58,44.34c0,.17.06.31.1.48a.58.58,0,0,0,.12.28.48.48,0,0,0,.21.13l.38.11C2,45.52,3.3,45.86,4,46l.59.11c.19,0,.42,0,.47,0a.72.72,0,0,0,0-.42C5,45.39,4.92,45.23,4.86,44.94Z"/><path class="cls-3" d="M74.46,29.46a2.85,2.85,0,0,0-.13-.48.62.62,0,0,0-.14-.23,1,1,0,0,0-.22-.14l-.36-.11c-.81-.22-2.25-.57-3.15-.81-.13,0-.43-.11-.56-.13s-.2-.06-.25,0-.05.11,0,.2l.12.38a34.81,34.81,0,0,1-61,31.18H6.93A37.62,37.62,0,0,0,74.46,29.46Z"/></g></g></svg>