<svg width="65" height="64" viewBox="0 0 65 64" fill="none" xmlns="http://www.w3.org/2000/svg">
<circle cx="32.7998" cy="32" r="29" stroke="#3385FF" stroke-width="6"/>
<g style="mix-blend-mode:multiply">
<path d="M32.7998 2V8" stroke="#3385FF" stroke-width="4" stroke-linecap="round"/>
</g>
<g style="mix-blend-mode:multiply">
<path d="M32.7998 56V62" stroke="#3385FF" stroke-width="4" stroke-linecap="round"/>
</g>
<g style="mix-blend-mode:multiply">
<path d="M2.7998 32L8.7998 32" stroke="#3385FF" stroke-width="4" stroke-linecap="round"/>
</g>
<g style="mix-blend-mode:multiply">
<path d="M56.7998 32L62.7998 32" stroke="#3385FF" stroke-width="4" stroke-linecap="round"/>
</g>
<path d="M36.0161 31.3201C36.1824 31.3201 36.3446 31.3702 36.4804 31.4635L45.0908 37.3785C45.4539 37.6279 45.5403 38.1163 45.2838 38.4694C45.2344 38.5374 45.1742 38.5973 45.1054 38.6468L36.495 44.8463C36.1377 45.1035 35.6337 45.0304 35.3692 44.683C35.2666 44.5482 35.2112 44.3849 35.2112 44.2172V40.2291H28.172C23.1553 40.2568 20.4313 37.8458 19.9998 32.9961C20.4357 33.4399 22.3409 36.0588 28.172 36.0588C32.0594 36.0588 34.4058 36.0153 35.2112 35.9285V32.1028C35.2112 31.6705 35.5716 31.3201 36.0161 31.3201ZM30.6303 19.317C30.7329 19.4518 30.7883 19.615 30.7883 19.7827V23.7709H37.8275C42.8442 23.7431 45.5683 26.1542 45.9998 31.0039C45.5638 30.5601 43.6586 27.9412 37.8275 27.9412C33.9401 27.9412 31.5937 27.9846 30.7883 28.0714V31.8971C30.7883 32.3294 30.428 32.6798 29.9834 32.6798C29.8171 32.6798 29.6549 32.6297 29.5191 32.5364L20.9087 26.6215C20.5456 26.372 20.4592 25.8837 20.7157 25.5306C20.7651 25.4626 20.8253 25.4027 20.8941 25.3531L29.5045 19.1537C29.8618 18.8965 30.3658 18.9696 30.6303 19.317V19.317Z" fill="#0066FF"/>
</svg>
