<svg width="64" height="64" viewBox="0 0 64 64" fill="none" xmlns="http://www.w3.org/2000/svg">
<circle cx="32" cy="32" r="29" stroke="#3385FF" stroke-width="6"/>
<g style="mix-blend-mode:multiply">
<path d="M32 2V8" stroke="#3385FF" stroke-width="4" stroke-linecap="round"/>
</g>
<g style="mix-blend-mode:multiply">
<path d="M32 56V62" stroke="#3385FF" stroke-width="4" stroke-linecap="round"/>
</g>
<g style="mix-blend-mode:multiply">
<path d="M2 32L8 32" stroke="#3385FF" stroke-width="4" stroke-linecap="round"/>
</g>
<g style="mix-blend-mode:multiply">
<path d="M56 32L62 32" stroke="#3385FF" stroke-width="4" stroke-linecap="round"/>
</g>
<path d="M29.1035 39.7821H23.0939C22.5334 39.7406 22.1027 39.5071 21.8017 39.0816C21.5008 38.656 21.3191 38.1837 21.2568 37.6648C21.3191 37.1458 21.5008 36.7202 21.8017 36.3881C22.1027 36.0559 22.5334 35.8692 23.0939 35.8277H29.1035V33.8659L23.0939 33.8349C22.5334 33.7933 22.1027 33.5962 21.8017 33.2433C21.5008 32.8903 21.3191 32.444 21.2568 31.9043C21.3191 31.3853 21.5008 30.9598 21.8017 30.6277C22.1027 30.2955 22.5334 30.1088 23.0939 30.0672H27.5777L23.4053 22.7187C23.1977 22.4697 23.0005 22.1531 22.8138 21.769C22.6268 21.3851 22.5438 20.9646 22.5646 20.508C22.6684 19.9267 22.876 19.4544 23.1873 19.0913C23.4986 18.728 24.0799 18.4944 24.931 18.3906C25.4293 18.4322 25.8756 18.6034 26.27 18.9043C26.6645 19.2054 26.9862 19.5324 27.2352 19.8852L31.9682 28.5414L37.168 19.8229C37.4172 19.47 37.739 19.1587 38.1334 18.8887C38.5278 18.619 38.9741 18.4528 39.4722 18.3906C39.7837 18.4114 40.0691 18.4528 40.3286 18.5152C40.588 18.5774 40.8164 18.6812 41.0136 18.8266C41.2108 18.9719 41.3769 19.1795 41.5118 19.4492C41.6468 19.7192 41.7454 20.0721 41.8076 20.508C41.8076 21.11 41.6 21.6808 41.1849 22.2206L36.3586 30.0672H40.9358C41.4755 30.1088 41.9011 30.2955 42.2124 30.6277C42.5237 30.9598 42.7003 31.3853 42.7417 31.9043C42.7003 32.444 42.5187 32.9007 42.1968 33.2744C41.8751 33.648 41.4443 33.8557 40.9046 33.8971L34.9574 33.9283V35.8277H40.9358C41.4755 35.8692 41.9011 36.0767 42.2124 36.4504C42.5237 36.824 42.7003 37.2703 42.7417 37.7894C42.7003 38.3291 42.5238 38.7806 42.2124 39.1438C41.9011 39.5072 41.4755 39.7095 40.9358 39.7511L34.9574 39.7199V43.0205C34.8743 44.785 33.9091 45.6673 32.0616 45.6673C31.1483 45.6673 30.4372 45.4493 29.9287 45.0132C29.42 44.5773 29.145 43.9132 29.1035 43.0205V39.7821Z" fill="#0066FF"/>
</svg>
