<svg width="65" height="64" viewBox="0 0 65 64" fill="none" xmlns="http://www.w3.org/2000/svg">
<circle cx="32.3999" cy="32" r="29" stroke="#3385FF" stroke-width="6"/>
<g style="mix-blend-mode:multiply">
<path d="M32.3999 2V8" stroke="#3385FF" stroke-width="4" stroke-linecap="round"/>
</g>
<g style="mix-blend-mode:multiply">
<path d="M32.3999 56V62" stroke="#3385FF" stroke-width="4" stroke-linecap="round"/>
</g>
<g style="mix-blend-mode:multiply">
<path d="M2.3999 32L8.3999 32" stroke="#3385FF" stroke-width="4" stroke-linecap="round"/>
</g>
<g style="mix-blend-mode:multiply">
<path d="M56.3999 32L62.3999 32" stroke="#3385FF" stroke-width="4" stroke-linecap="round"/>
</g>
<rect width="32" height="32" transform="translate(16 16)" fill="white"/>
<path d="M43.3671 40.9062C43.3378 40.7598 43.3378 40.6133 43.3085 40.4375C43.2499 39.9688 43.0742 39.5879 42.8398 39.2949C42.6054 39.002 42.3124 38.7383 41.9902 38.5332C41.6386 38.2988 41.2577 38.123 40.8769 38.0059C40.4667 37.8887 40.0566 37.7422 39.6171 37.625C39.1777 37.5078 38.7675 37.3613 38.3574 37.2441C37.9472 37.0977 37.5956 36.9219 37.2441 36.7168C36.8632 36.4824 36.5702 36.248 36.3652 36.043C36.2187 35.8672 36.0722 35.6914 35.955 35.457C35.8964 35.3398 35.8671 35.252 35.8378 35.1348C35.7792 34.959 35.7499 34.8125 35.7499 34.6367C35.7499 34.4023 35.7499 34.1094 35.7792 33.8164C35.8085 33.4355 35.955 33.084 36.2187 32.791C36.3945 32.6152 36.5702 32.4688 36.746 32.3223C36.8632 32.2344 37.0097 32.1465 37.1269 32.0293C37.3027 31.8828 37.4199 31.6777 37.537 31.4727C37.6542 31.2383 37.7421 31.0039 37.8593 30.7695C37.9179 30.5938 38.0058 30.3887 38.0937 30.2129C38.1523 30.125 38.1816 30.0078 38.2109 29.8906C38.416 29.2754 38.5331 28.7773 38.621 28.3086C38.7382 27.752 38.7968 27.1953 38.8554 26.4629C38.8847 25.1152 38.7089 23.7676 38.3281 22.4785C38.3281 22.4492 38.2988 22.3906 38.2988 22.3613C38.1523 21.7461 37.8886 21.1895 37.537 20.6621C37.5077 20.6328 37.4785 20.5742 37.4492 20.5449L37.4199 20.5156C37.3906 20.457 37.332 20.3984 37.3027 20.3398C37.2441 20.2812 37.2148 20.2227 37.1562 20.1348L37.1269 20.1055C36.8339 19.7539 36.541 19.4609 36.2187 19.2266C35.7792 18.9043 35.3398 18.6406 34.871 18.4648C34.4023 18.2305 33.9335 18.1133 33.4648 18.0254C32.996 17.9668 32.5566 17.9375 32.1464 17.9375H31.8534C31.414 17.9375 30.9745 17.9668 30.5351 18.0254C30.0663 18.084 29.5976 18.2305 29.1581 18.4062C28.6894 18.582 28.2499 18.8457 27.8105 19.168C27.4882 19.4023 27.1952 19.6953 26.9023 20.0469L26.873 20.0762C26.8144 20.1348 26.7851 20.1934 26.7265 20.2812C26.6972 20.3398 26.6386 20.3984 26.6093 20.457L26.58 20.4863C26.5507 20.5156 26.5214 20.5742 26.4921 20.6035C26.1406 21.1309 25.8769 21.6875 25.7304 22.3027C25.7304 22.332 25.7011 22.3906 25.7011 22.4199C25.3202 23.709 25.1445 25.0566 25.1738 26.4043C25.2031 27.1367 25.2909 27.6934 25.4081 28.25C25.496 28.7188 25.6132 29.2461 25.8183 29.832C25.8476 29.9492 25.9062 30.0371 25.9355 30.1543C26.0234 30.3594 26.1113 30.5352 26.1699 30.7109C26.2577 30.9453 26.3749 31.1797 26.4921 31.4141C26.58 31.6191 26.7265 31.8242 26.9023 31.9707C27.0195 32.0586 27.1659 32.1758 27.2831 32.2637C27.4589 32.4102 27.6347 32.5859 27.8105 32.7324C28.0742 33.0254 28.2206 33.377 28.2499 33.7578C28.2792 34.0508 28.2792 34.3145 28.2792 34.5781C28.2792 34.7246 28.2499 34.8711 28.2206 35.0176V35.0762C28.1913 35.1934 28.1327 35.2812 28.1034 35.3984C28.0449 35.4863 28.0156 35.5449 27.957 35.6328C27.9277 35.6914 27.8691 35.75 27.8398 35.8086C27.8105 35.8672 27.7519 35.9258 27.7226 35.9551C27.5175 36.1602 27.2245 36.3945 26.8437 36.6289C26.5214 36.834 26.1406 37.0098 25.7304 37.1562C25.3202 37.3027 24.9101 37.4199 24.4706 37.5371C24.0312 37.6543 23.621 37.8008 23.2109 37.918C22.83 38.0352 22.4492 38.2109 22.0976 38.4453C21.746 38.6504 21.4824 38.9141 21.248 39.207C21.0136 39.5 20.8671 39.8809 20.7792 40.3496C20.5156 41.668 20.457 42.6641 20.5742 43.4258C20.662 44.1875 20.8378 44.6562 21.0429 44.8027C21.1601 44.8906 21.4238 44.9785 21.8632 45.0957C22.3027 45.1836 22.83 45.2715 23.4452 45.3887C24.1191 45.4766 24.8222 45.5645 25.496 45.6523C26.2577 45.7402 27.0195 45.7988 27.7812 45.8867C28.2206 45.916 28.6308 45.9453 29.0702 45.9746C29.3925 46.0039 29.6855 46.0039 30.0077 46.0332H31.0038C31.3554 46.0332 31.707 46.0625 32.0585 46.0625C32.4101 46.0625 32.7617 46.0625 33.1132 46.0332H34.1093C34.4316 46.0039 34.7245 46.0039 35.0468 45.9746C35.4863 45.9453 35.8964 45.916 36.3359 45.8867C37.0976 45.8281 37.8593 45.7402 38.621 45.6523C39.2949 45.5645 39.998 45.4766 40.6718 45.3887C41.287 45.3008 41.8144 45.2129 42.2538 45.0957C42.6933 45.0078 42.957 44.9199 43.0742 44.8027C43.2792 44.6562 43.4257 44.1875 43.5429 43.4258C43.5136 42.752 43.4843 41.9023 43.3671 40.9062Z" fill="#0066FF"/>
</svg>
