<svg width="65" height="64" viewBox="0 0 65 64" fill="none" xmlns="http://www.w3.org/2000/svg">
<circle cx="32.2" cy="32" r="29" stroke="#3385FF" stroke-width="6"/>
<g style="mix-blend-mode:multiply">
<path d="M32.2 2V8" stroke="#3385FF" stroke-width="4" stroke-linecap="round"/>
</g>
<g style="mix-blend-mode:multiply">
<path d="M32.2 56V62" stroke="#3385FF" stroke-width="4" stroke-linecap="round"/>
</g>
<g style="mix-blend-mode:multiply">
<path d="M2.19995 32L8.19995 32" stroke="#3385FF" stroke-width="4" stroke-linecap="round"/>
</g>
<g style="mix-blend-mode:multiply">
<path d="M56.2 32L62.2 32" stroke="#3385FF" stroke-width="4" stroke-linecap="round"/>
</g>
<path d="M33.4608 18.9849L43.882 22.3031C44.2065 22.4065 44.4897 22.6103 44.6907 22.8853C44.8917 23.1602 45 23.4919 45 23.8325V37.7751C43.614 39.9112 41.7445 41.8864 39.3919 43.7008C37.039 45.5154 34.5751 46.8818 32 47.8005C28.3191 46.2005 25.7154 44.8121 24.1888 43.6349C22.6625 42.4576 20.9328 40.5044 19 37.7751V23.8323C19 23.4918 19.1083 23.16 19.3093 22.8851C19.5103 22.6102 19.7935 22.4063 20.118 22.303L30.5392 18.9848C31.4896 18.6822 32.5104 18.6822 33.4608 18.9848V18.9849ZM31.1715 26.3221C28.3205 26.3221 25.9987 28.6556 25.9987 31.5213C25.9987 34.3869 28.3205 36.7206 31.1715 36.7206C32.1138 36.7206 33.0376 36.4622 33.8421 35.9766C33.8972 35.9427 33.9492 35.9088 34.0012 35.875L36.4272 38.5469C36.4955 38.6227 36.579 38.6833 36.6723 38.7246C36.7656 38.766 36.8665 38.7872 36.9686 38.7868C37.1114 38.7861 37.2509 38.7439 37.3703 38.6655C37.4897 38.587 37.5837 38.4756 37.641 38.3448C37.6983 38.214 37.7165 38.0694 37.6932 37.9284C37.67 37.7875 37.6064 37.6563 37.5101 37.5509L35.1027 34.9005C35.3108 34.6573 35.4952 34.3947 35.6532 34.1163C36.1059 33.3323 36.3446 32.4345 36.3446 31.5213C36.3446 28.6556 34.0227 26.3221 31.1715 26.3221Z" fill="#0066FF"/>
</svg>
