<svg width="65" height="64" viewBox="0 0 65 64" fill="none" xmlns="http://www.w3.org/2000/svg">
<circle cx="32.6" cy="32" r="29" stroke="#3385FF" stroke-width="6"/>
<g style="mix-blend-mode:multiply">
<path d="M32.6 2V8" stroke="#3385FF" stroke-width="4" stroke-linecap="round"/>
</g>
<g style="mix-blend-mode:multiply">
<path d="M32.6 56V62" stroke="#3385FF" stroke-width="4" stroke-linecap="round"/>
</g>
<g style="mix-blend-mode:multiply">
<path d="M2.59998 32L8.59998 32" stroke="#3385FF" stroke-width="4" stroke-linecap="round"/>
</g>
<g style="mix-blend-mode:multiply">
<path d="M56.6 32L62.6 32" stroke="#3385FF" stroke-width="4" stroke-linecap="round"/>
</g>
<path d="M39 19C39.7956 19 40.5587 19.3161 41.1213 19.8787C41.6839 20.4413 42 21.2044 42 22V29.77C41.86 29.926 41.734 30.098 41.626 30.286L36.592 39.004C36.2673 39.5665 36.134 40.2192 36.212 40.864L36.472 43.014C36.5664 43.7978 36.9659 44.5128 37.584 45.004L23 45C22.2044 45 21.4413 44.6839 20.8787 44.1213C20.3161 43.5587 20 42.7956 20 42V22C20 21.2044 20.3161 20.4413 20.8787 19.8787C21.4413 19.3161 22.2044 19 23 19H39ZM31.6 35.6H25.6C25.3348 35.6 25.0804 35.7054 24.8929 35.8929C24.7054 36.0804 24.6 36.3348 24.6 36.6C24.6 36.8652 24.7054 37.1196 24.8929 37.3071C25.0804 37.4946 25.3348 37.6 25.6 37.6H31.6C31.8652 37.6 32.1196 37.4946 32.3071 37.3071C32.4946 37.1196 32.6 36.8652 32.6 36.6C32.6 36.3348 32.4946 36.0804 32.3071 35.8929C32.1196 35.7054 31.8652 35.6 31.6 35.6ZM36.2 29.8H25.6C25.3348 29.8 25.0804 29.9054 24.8929 30.0929C24.7054 30.2804 24.6 30.5348 24.6 30.8C24.6 31.0652 24.7054 31.3196 24.8929 31.5071C25.0804 31.6946 25.3348 31.8 25.6 31.8H36.2C36.4652 31.8 36.7196 31.6946 36.9071 31.5071C37.0946 31.3196 37.2 31.0652 37.2 30.8C37.2 30.5348 37.0946 30.2804 36.9071 30.0929C36.7196 29.9054 36.4652 29.8 36.2 29.8ZM36.2 24H25.6C25.3348 24 25.0804 24.1054 24.8929 24.2929C24.7054 24.4804 24.6 24.7348 24.6 25C24.6 25.2652 24.7054 25.5196 24.8929 25.7071C25.0804 25.8946 25.3348 26 25.6 26H36.2C36.4652 26 36.7196 25.8946 36.9071 25.7071C37.0946 25.5196 37.2 25.2652 37.2 25C37.2 24.7348 37.0946 24.4804 36.9071 24.2929C36.7196 24.1054 36.4652 24 36.2 24Z" fill="#0066FF"/>
<path d="M37.9519 39.5577L42.9839 30.8377C43.0628 30.7012 43.1679 30.5816 43.293 30.4858C43.4181 30.3899 43.5609 30.3196 43.7132 30.2789C43.8655 30.2382 44.0243 30.228 44.1806 30.2487C44.3369 30.2694 44.4875 30.3207 44.6239 30.3997L46.8759 31.6997C47.0126 31.7784 47.1324 31.8833 47.2284 32.0084C47.3245 32.1334 47.395 32.2762 47.4359 32.4285C47.4767 32.5808 47.4872 32.7397 47.4666 32.896C47.446 33.0524 47.3948 33.2031 47.3159 33.3397L42.2819 42.0577C42.1518 42.282 41.9525 42.4581 41.7139 42.5597L39.7219 43.4117C39.5506 43.4851 39.3644 43.5176 39.1783 43.5065C38.9922 43.4955 38.8112 43.4412 38.6497 43.3481C38.4882 43.2549 38.3507 43.1254 38.2479 42.9698C38.1452 42.8142 38.0802 42.6368 38.0579 42.4517L37.7979 40.2997C37.7678 40.0422 37.8218 39.7819 37.9519 39.5577Z" fill="#0066FF"/>
</svg>
